<svg width="102" height="100" viewBox="0 0 102 100" fill="none" xmlns="http://www.w3.org/2000/svg">
<g id="Group 40">
<g id="Vector">
<path d="M65.5415 54.9298C67.6978 52.7735 71.1938 52.7735 73.3501 54.9298L94.5587 76.1384V79.6088L71.6149 56.665C70.4169 55.4671 68.4747 55.4671 67.2768 56.665L55.6017 68.3401L53.9067 66.5644L65.5415 54.9298Z" fill="#787C87"/>
<path d="M24.4371 42.6598C26.5934 40.5036 30.0894 40.5036 32.2457 42.6598L89.5858 100H86.1154L30.5105 44.3951C29.3125 43.1971 27.3703 43.1971 26.1724 44.3951L0.0800781 70.4873V67.0169L24.4371 42.6598Z" fill="#787C87"/>
<path d="M57.7488 6.74846C57.7488 6.07081 57.1994 5.52147 56.5218 5.52147H5.60155C2.55212 5.52147 0.0800781 7.99352 0.0800781 11.0429V94.4785C0.0800781 97.5279 2.55213 100 5.60155 100H89.0371C92.0866 100 94.5586 97.5279 94.5586 94.4785V43.5583C94.5586 42.8806 94.0093 42.3313 93.3316 42.3313C92.654 42.3313 92.1046 42.8806 92.1046 43.5583V94.4785C92.1046 96.1726 90.7313 97.546 89.0371 97.546H5.60155C3.90743 97.546 2.53407 96.1726 2.53407 94.4785V11.0429C2.53407 9.34882 3.90743 7.97546 5.60155 7.97546H56.5218C57.1994 7.97546 57.7488 7.42611 57.7488 6.74846Z" fill="#787C87"/>
</g>
<g id="Vector_2">
<path fill-rule="evenodd" clip-rule="evenodd" d="M85.3562 0C86.0338 -2.9621e-08 86.5832 0.549344 86.5832 1.22699V31.9018C86.5832 32.5795 86.0338 33.1288 85.3562 33.1288C84.6785 33.1288 84.1292 32.5795 84.1292 31.9018V1.22699C84.1292 0.549344 84.6785 2.9621e-08 85.3562 0Z" fill="#FD3D48"/>
<path fill-rule="evenodd" clip-rule="evenodd" d="M101.921 16.5644C101.921 17.2421 101.371 17.7914 100.694 17.7914H70.0187C69.3411 17.7914 68.7917 17.2421 68.7917 16.5644C68.7917 15.8868 69.3411 15.3374 70.0187 15.3374H100.694C101.371 15.3374 101.921 15.8868 101.921 16.5644Z" fill="#FD3D48"/>
</g>
</g>
</svg>
