<svg width="120" height="170" viewBox="0 0 120 170" fill="none" xmlns="http://www.w3.org/2000/svg">
<path fill-rule="evenodd" clip-rule="evenodd" d="M10 166.7H110C113.7 166.7 116.7 163.7 116.7 160V10C116.7 6.29969 113.7 3.3 110 3.3H10C6.29969 3.3 3.3 6.29969 3.3 10V160C3.3 163.7 6.29969 166.7 10 166.7ZM10 0C4.47715 0 0 4.47715 0 10V160C0 165.523 4.47715 170 10 170H110C115.523 170 120 165.523 120 160V10C120 4.47715 115.523 0 110 0H10Z" fill="#4A4D55"/>
<path fill-rule="evenodd" clip-rule="evenodd" d="M18.75 26.25C18.75 25.5596 19.3096 25 20 25H100C100.69 25 101.25 25.5596 101.25 26.25C101.25 26.9404 100.69 27.5 100 27.5H20C19.3096 27.5 18.75 26.9404 18.75 26.25Z" fill="#4A4D55"/>
<path fill-rule="evenodd" clip-rule="evenodd" d="M18.75 44.25C18.75 43.5596 19.3096 43 20 43H100C100.69 43 101.25 43.5596 101.25 44.25C101.25 44.9404 100.69 45.5 100 45.5H20C19.3096 45.5 18.75 44.9404 18.75 44.25Z" fill="#4A4D55"/>
<path fill-rule="evenodd" clip-rule="evenodd" d="M18.75 62.25C18.75 61.5596 19.3096 61 20 61H100C100.69 61 101.25 61.5596 101.25 62.25C101.25 62.9404 100.69 63.5 100 63.5H20C19.3096 63.5 18.75 62.9404 18.75 62.25Z" fill="#4A4D55"/>
<path fill-rule="evenodd" clip-rule="evenodd" d="M18.75 80.25C18.75 79.5596 19.3096 79 20 79H70C70.6904 79 71.25 79.5596 71.25 80.25C71.25 80.9404 70.6904 81.5 70 81.5H20C19.3096 81.5 18.75 80.9404 18.75 80.25Z" fill="#4A4D55"/>
</svg>
