<svg width="50" height="50" viewBox="0 0 50 50" fill="none" xmlns="http://www.w3.org/2000/svg">
<path d="M30.7539 39.7649C28.7393 39.0641 26.6986 38.4463 24.7326 37.6536C18.3903 35.0959 12.956 31.33 8.81613 25.9208C5.70615 21.8556 3.8616 17.2741 3.05081 12.2769C2.65387 9.82888 2.55496 7.36477 2.62177 4.89473C2.62611 4.71814 2.65257 4.54199 2.67643 4.28198C2.87555 4.37557 3.01957 4.43189 3.15362 4.50726C6.55468 6.45052 9.95922 8.38785 13.3447 10.3565C13.605 10.5073 13.8388 10.8592 13.8973 11.1535C14.2483 12.9129 14.5442 14.683 14.8756 16.5471L10.7574 15.4884C10.8815 15.8873 10.9648 16.2083 11.0798 16.5178C12.707 20.9015 15.4781 24.5178 18.9586 27.6506C23.3834 31.6341 28.5931 34.2913 34.2643 36.1274C36.0069 36.6919 37.8024 37.1014 39.5741 37.5795C39.7853 37.6366 39.9979 37.6891 40.2166 37.7454C37.8792 42.2583 32.6383 47.1687 25.87 47.4427C18.8779 47.7272 12.7829 44.3294 8.98011 37.5761C9.10257 37.5099 9.22839 37.4498 9.35709 37.3961C11.0108 36.7956 12.6688 36.207 14.3177 35.5951C14.6648 35.4651 14.9354 35.4927 15.2491 35.6963C16.9054 36.7723 18.5755 37.8276 20.2379 38.8922C20.3572 38.9684 20.4652 39.0616 20.6643 39.2127L17.855 39.5756C20.8418 42.1054 26.6344 42.976 30.7539 39.7649Z" fill="#FD3D48"/>
<path d="M16.0604 6.7146C22.0404 7.99811 27.958 7.9998 33.8899 6.72264C33.8899 7.85497 33.9468 8.93861 33.8795 10.015C33.6505 13.6924 32.998 17.2875 31.537 20.7104C30.5752 22.9653 29.3219 25.0296 27.3407 26.585C26.7153 27.0703 26.0449 27.4978 25.3383 27.8617C25.1096 27.9807 24.6828 27.9041 24.4229 27.7732C22.4174 26.7629 20.9407 25.1965 19.7265 23.3773C17.9045 20.6494 16.9965 17.6013 16.4703 14.4233C16.0712 12.0142 15.9797 9.58608 16.0222 7.15076C16.0244 7.02626 16.0456 6.90177 16.0604 6.7146Z" fill="#EAECEC"/>
<path d="M47.3829 4.22559C47.3829 5.52307 47.4185 6.71426 47.3764 7.90206C47.2029 12.8396 45.9726 17.5108 43.5589 21.8635C41.0484 26.3945 37.4469 29.9177 32.9948 32.6418C32.5753 32.8985 32.1358 33.0136 31.6734 32.8019C30.1442 32.1007 28.622 31.385 27.0112 30.6351C32.4829 27.0712 36.5403 22.5305 38.1003 16.0837L35.313 16.5483C35.4115 15.7826 35.4978 15.0585 35.5998 14.3361C35.7338 13.3837 35.8974 12.4348 36.0136 11.4803C36.0757 10.9721 36.2822 10.6393 36.755 10.3674C40.0871 8.45214 43.4005 6.50634 46.7209 4.57198C46.8892 4.47331 47.0697 4.38989 47.3829 4.22559Z" fill="#FD3D48"/>
</svg>
