<svg width="120" height="170" viewBox="0 0 120 170" fill="none" xmlns="http://www.w3.org/2000/svg">
<path d="M98.5101 26.2804H20.6734C20.0017 26.2804 19.4573 26.8319 19.4573 27.5123C19.4573 28.1926 20.0017 28.7441 20.6734 28.7441H98.5101C99.1817 28.7441 99.7262 28.1926 99.7262 27.5123C99.7262 26.8319 99.1817 26.2804 98.5101 26.2804Z" fill="#4A4D55"/>
<path d="M20.6734 41.0623H98.5101C99.1817 41.0623 99.7262 41.6138 99.7262 42.2942C99.7262 42.9745 99.1817 43.526 98.5101 43.526H20.6734C20.0017 43.526 19.4573 42.9745 19.4573 42.2942C19.4573 41.6138 20.0017 41.0623 20.6734 41.0623Z" fill="#4A4D55"/>
<path d="M98.5139 55.8453H60.4063C59.7346 55.8453 59.1902 56.3968 59.1902 57.0772C59.1902 57.7575 59.7346 58.309 60.4063 58.309H98.5139C99.1855 58.309 99.73 57.7575 99.73 57.0772C99.73 56.3968 99.1855 55.8453 98.5139 55.8453Z" fill="#4A4D55"/>
<path d="M60.4063 111.692H98.5139C99.1855 111.692 99.73 112.243 99.73 112.923C99.73 113.604 99.1855 114.155 98.5139 114.155H60.4063C59.7346 114.155 59.1902 113.604 59.1902 112.923C59.1902 112.243 59.7346 111.692 60.4063 111.692Z" fill="#4A4D55"/>
<path d="M98.5139 126.474H60.4063C59.7346 126.474 59.1902 127.025 59.1902 127.705C59.1902 128.386 59.7346 128.937 60.4063 128.937H98.5139C99.1855 128.937 99.73 128.386 99.73 127.705C99.73 127.025 99.1855 126.474 98.5139 126.474Z" fill="#4A4D55"/>
<path d="M60.4063 141.255H98.5139C99.1855 141.255 99.73 141.807 99.73 142.487C99.73 143.168 99.1855 143.719 98.5139 143.719H60.4063C59.7346 143.719 59.1902 143.168 59.1902 142.487C59.1902 141.807 59.7346 141.255 60.4063 141.255Z" fill="#4A4D55"/>
<path d="M18.866 131.651C20.5798 129.901 22.9071 128.914 25.3375 128.914H40.3373C42.7676 128.914 45.095 129.901 46.8087 131.651C48.5219 133.403 49.4825 135.775 49.4825 138.245V142.078C49.4825 142.999 48.7459 143.745 47.8371 143.745C46.9284 143.745 46.1918 142.999 46.1918 142.078V138.245C46.1918 136.65 45.5714 135.122 44.4717 133.998C43.3724 132.875 41.8849 132.247 40.3373 132.247H25.3375C23.7898 132.247 22.3023 132.875 21.203 133.998C20.1033 135.122 19.483 136.65 19.483 138.245V142.078C19.483 142.999 18.7463 143.745 17.8376 143.745C16.9289 143.745 16.1922 142.999 16.1922 142.078V138.245C16.1922 135.775 17.1528 133.403 18.866 131.651Z" fill="#4A4D55"/>
<path fill-rule="evenodd" clip-rule="evenodd" d="M32.8371 108.382C27.7594 108.382 23.4892 112.354 23.4892 117.44C23.4892 122.527 27.7596 126.498 32.8371 126.498C37.9147 126.498 42.185 122.527 42.185 117.44C42.185 112.354 37.9149 108.382 32.8371 108.382ZM26.78 117.44C26.78 114.362 29.4069 111.715 32.8371 111.715C36.2674 111.715 38.8943 114.362 38.8943 117.44C38.8943 120.518 36.2675 123.165 32.8371 123.165C29.4068 123.165 26.78 120.518 26.78 117.44Z" fill="#4A4D55"/>
<path fill-rule="evenodd" clip-rule="evenodd" d="M119.998 85.0642V163.333C119.998 167.015 117.051 170 113.417 170H6.58143C2.94655 170 0 167.015 0 163.333V6.66667C0 2.98477 2.94661 0 6.58144 0H113.417C117.051 0 119.998 2.9847 119.998 6.66667V84.9364C119.999 84.9471 119.999 84.9577 120 84.9684C120 84.9754 120 84.9823 120 84.9893C120 84.993 120 84.9967 120 85.0003C120 85.0103 120 85.0203 120 85.0303C119.999 85.0416 119.999 85.0529 119.998 85.0642ZM3.29072 6.66667C3.29072 4.82572 4.76403 3.33333 6.58144 3.33333H113.417C115.234 3.33333 116.708 4.82579 116.708 6.66667V83.7684H3.29072V6.66667ZM3.29072 86.2322V163.333C3.29072 165.174 4.7641 166.667 6.58143 166.667H113.417C115.234 166.667 116.708 165.174 116.708 163.333V86.2322H3.29072Z" fill="#4A4D55"/>
</svg>
