<svg width="15" height="15" viewBox="0 0 15 15" fill="none" xmlns="http://www.w3.org/2000/svg">
<path fill-rule="evenodd" clip-rule="evenodd" d="M6.17647 0.882353C3.25261 0.882353 0.882353 3.25261 0.882353 6.17647C0.882353 9.10033 3.25261 11.4706 6.17647 11.4706C9.10033 11.4706 11.4706 9.10033 11.4706 6.17647C11.4706 3.25261 9.10033 0.882353 6.17647 0.882353ZM0 6.17647C0 2.7653 2.7653 0 6.17647 0C9.58764 0 12.3529 2.7653 12.3529 6.17647C12.3529 9.58764 9.58764 12.3529 6.17647 12.3529C2.7653 12.3529 0 9.58764 0 6.17647Z" fill="#EAECEC"/>
<path d="M14.2468 14.8708C14.4191 15.0431 14.6985 15.0431 14.8708 14.8708C15.0431 14.6985 15.0431 14.4191 14.8708 14.2468L14.2468 14.8708ZM14.8708 14.2468L10.4591 9.83506L9.83506 10.4591L14.2468 14.8708L14.8708 14.2468Z" fill="#EAECEC"/>
</svg>
