<svg width="30" height="25" viewBox="0 0 30 25" fill="none" xmlns="http://www.w3.org/2000/svg">
<path d="M28.0822 0.201569L1.39475 10.4151C-0.406242 11.0635 -0.406242 12.1984 1.0673 12.5226L7.7801 14.6302L10.3997 22.4119C10.7272 23.2225 10.5635 23.5467 11.3821 23.5467C12.037 23.5467 12.3645 23.2225 12.6919 22.8982C12.8556 22.7361 14.3292 21.277 15.9664 19.6558L22.843 24.6815C24.1528 25.33 24.9714 25.0058 25.2989 23.5467L29.8832 2.30911C30.3744 0.525807 29.2283 -0.446907 28.0822 0.201569ZM24.644 5.06514L11.8733 16.5756L11.3821 21.9255L8.76246 14.1438L23.8253 4.7409C24.4802 4.25454 25.1351 4.57878 24.644 5.06514Z" fill="#FD3D48"/>
</svg>
