<svg width="30" height="30" viewBox="0 0 30 30" fill="none" xmlns="http://www.w3.org/2000/svg">
<path d="M24.2193 21.4044H22.0396C21.2144 21.4044 20.9593 20.7482 19.4768 19.2458C18.1855 17.9954 17.6143 17.8273 17.2972 17.8273C16.8521 17.8273 16.725 17.9544 16.725 18.5686V20.5372C16.725 21.0673 16.556 21.3844 15.1585 21.3844C12.3397 21.1954 9.91697 19.6579 8.51055 17.4172L8.48955 17.3822C6.85706 15.3546 5.6537 12.9109 5.05852 10.2381L5.03651 10.121C5.03651 9.80394 5.16355 9.50685 5.77773 9.50685H7.95739C8.50755 9.50685 8.71962 9.76093 8.93268 10.3531C10.011 13.466 11.8115 16.1969 12.5528 16.1969C12.8278 16.1969 12.9549 16.0698 12.9549 15.3716V12.1516C12.8699 10.6692 12.0866 10.5432 12.0866 10.014C12.0956 9.73092 12.3277 9.50485 12.6118 9.50485C12.6208 9.50485 12.6288 9.50485 12.6378 9.50585H12.6368H16.0668C16.533 9.50585 16.702 9.75993 16.702 10.3101V14.6514C16.702 15.1165 16.9141 15.2866 17.0411 15.2866C17.3162 15.2866 17.5503 15.1165 18.0574 14.6094C19.1117 13.322 20.013 11.8496 20.7002 10.2621L20.7462 10.142C20.8913 9.77893 21.2394 9.52686 21.6465 9.52686C21.6655 9.52686 21.6835 9.52786 21.7025 9.52886H21.6995H23.8792C24.5354 9.52886 24.6844 9.86596 24.5354 10.3331C23.6611 12.2587 22.6788 13.9132 21.5405 15.4456L21.5925 15.3716C21.3604 15.7527 21.2754 15.9218 21.5925 16.3469C21.8245 16.664 22.5878 17.3202 23.0959 17.9134C23.8312 18.6406 24.4473 19.4868 24.9125 20.4211L24.9375 20.4761C25.1495 21.0883 24.8314 21.4064 24.2173 21.4064L24.2193 21.4044ZM19.6049 0H10.3951C1.9896 0 0 1.9896 0 10.3951V19.6049C0 28.0104 1.9896 30 10.3951 30H19.6049C28.0104 30 30 28.0104 30 19.6049V10.3951C30 1.9896 27.9884 0 19.6049 0Z" fill="#FD3D48"/>
</svg>
