<svg width="276" height="60" viewBox="0 0 276 60" fill="none" xmlns="http://www.w3.org/2000/svg">
<g opacity="0.1">
<path d="M150.964 77.6407C146.25 75.9727 141.475 74.5023 136.875 72.6156C122.034 66.5283 109.317 57.5656 99.6301 44.6915C92.3528 35.0163 88.0365 24.1126 86.1393 12.2191C85.2104 6.39284 84.979 0.528252 85.1353 -5.35044C85.1455 -5.77071 85.2074 -6.18997 85.2632 -6.80878C85.7292 -6.58605 86.0662 -6.452 86.3799 -6.27261C94.3384 -1.64766 102.305 2.96318 110.227 7.6486C110.836 8.00739 111.383 8.8449 111.52 9.54534C112.341 13.7329 113.034 17.9456 113.809 22.3821L104.173 19.8625C104.463 20.8119 104.658 21.5759 104.927 22.3126C108.735 32.7457 115.219 41.3526 123.364 48.8085C133.718 58.2892 145.908 64.6134 159.179 68.9834C163.256 70.3268 167.458 71.3014 171.604 72.4392C172.098 72.5753 172.596 72.7002 173.107 72.8343C167.638 83.5748 155.374 95.2616 139.536 95.9137C123.175 96.591 108.912 88.5041 100.014 72.4312C100.3 72.2737 100.595 72.1307 100.896 72.0028C104.766 70.5737 108.645 69.1728 112.504 67.7165C113.316 67.4071 113.949 67.4726 114.683 67.9574C118.559 70.5183 122.467 73.0298 126.357 75.5635C126.636 75.7449 126.889 75.9666 127.355 76.3264L120.781 77.1902C127.77 83.211 141.325 85.2831 150.964 77.6407Z" fill="#EAECEC"/>
<path d="M116.582 -1.0188C130.575 2.03595 144.422 2.03997 158.303 -0.999656C158.303 1.69529 158.436 4.27434 158.278 6.83625C157.742 15.5883 156.216 24.1448 152.797 32.2911C150.546 37.6578 147.614 42.571 142.978 46.2728C141.514 47.4279 139.945 48.4451 138.292 49.3114C137.757 49.5946 136.758 49.4122 136.15 49.1008C131.457 46.6961 128.002 42.9681 125.16 38.6385C120.897 32.146 118.772 24.8916 117.541 17.3278C116.607 11.5942 116.393 5.81531 116.492 0.0192627C116.497 -0.27704 116.547 -0.573336 116.582 -1.0188Z" fill="#EAECEC"/>
<path d="M189.877 -6.94281C189.877 -3.85481 189.96 -1.01978 189.862 1.8072C189.456 13.5585 186.577 24.676 180.929 35.0355C175.054 45.8193 166.627 54.2045 156.209 60.6879C155.227 61.2986 154.199 61.5728 153.117 61.0688C149.538 59.3999 145.976 57.6966 142.207 55.9118C155.011 47.4298 164.505 36.6228 168.155 21.2796L161.633 22.3852C161.864 20.563 162.066 18.8396 162.304 17.1202C162.618 14.8536 163.001 12.5951 163.273 10.3234C163.418 9.11399 163.901 8.32185 165.008 7.67482C172.805 3.11638 180.558 -1.51462 188.328 -6.1184C188.722 -6.35323 189.144 -6.55177 189.877 -6.94281Z" fill="#EAECEC"/>
</g>
<path d="M269.146 29.6464L268.793 30L269.146 30.3536L275.5 36.7071V53C275.5 55.4853 273.485 57.5 271 57.5H5C2.51472 57.5 0.5 55.4853 0.5 53V36.7071L6.85355 30.3536L7.20711 30L6.85355 29.6464L0.5 23.2929V7C0.5 4.51472 2.51472 2.5 5 2.5H271C273.485 2.5 275.5 4.51472 275.5 7V23.2929L269.146 29.6464Z" stroke="#EAECEC"/>
</svg>
