<svg width="20" height="20" viewBox="0 0 20 20" fill="none" xmlns="http://www.w3.org/2000/svg">
<path fill-rule="evenodd" clip-rule="evenodd" d="M20 9.99995C20 9.59331 19.7787 9.3263 19.3361 8.79216C17.7169 6.83811 14.1455 3.19995 9.99998 3.19995C5.85448 3.19995 2.28309 6.83811 0.663879 8.79216C0.221293 9.3263 0 9.59331 0 9.99995C0 10.4066 0.221293 10.6736 0.663879 11.2077C2.28309 13.1618 5.85448 16.8 9.99998 16.8C14.1455 16.8 17.7169 13.1618 19.3361 11.2077C19.7787 10.6736 20 10.4066 20 9.99995ZM9.99998 13.4C11.8892 13.4 13.4206 11.8778 13.4206 9.99995C13.4206 8.12213 11.8892 6.59995 9.99998 6.59995C8.11087 6.59995 6.57936 8.12213 6.57936 9.99995C6.57936 11.8778 8.11087 13.4 9.99998 13.4Z" fill="#242229"/>
</svg>
