<svg width="20" height="17" viewBox="0 0 20 17" fill="none" xmlns="http://www.w3.org/2000/svg">
<path d="M5.55979 0.400024L3.5799 2.37992L17.722 16.5221L19.7019 14.5422L17.9221 12.7624C18.4859 12.1982 18.9628 11.6583 19.3361 11.2079C19.7786 10.6739 20 10.4067 20 10.0001C20 9.59349 19.7787 9.32649 19.3362 8.7925C17.7171 6.83845 14.1455 3.20007 9.99998 3.20007C9.49474 3.20007 8.99802 3.25411 8.51233 3.35256L5.55979 0.400024Z" fill="#FD3D48"/>
<path d="M0.663879 8.79228C1.28796 8.03914 2.20204 7.03583 3.32722 6.08706L6.63364 9.39348C6.59797 9.59031 6.57936 9.79303 6.57936 10.0001C6.57936 11.8779 8.11087 13.4001 9.99998 13.4001C10.2011 13.4001 10.3982 13.3828 10.5899 13.3497L13.3061 16.0659C12.2687 16.5168 11.1567 16.8001 9.99998 16.8001C5.85448 16.8001 2.28309 13.162 0.663879 11.2079C0.221418 10.6739 0 10.4067 0 10.0001C0 9.59349 0.221417 9.32627 0.663879 8.79228Z" fill="#FD3D48"/>
</svg>
