<svg width="28" height="35" viewBox="0 0 28 35" fill="none" xmlns="http://www.w3.org/2000/svg">
<path id="Vector" d="M9.6132 0.633005C9.95015 0.348938 10.3562 0.151567 10.7937 0.059257C11.2312 -0.0330536 11.6857 -0.0173039 12.1152 0.10504C12.4453 0.21005 12.7301 0.401109 13.0375 0.590709C13.2798 0.738014 13.5646 0.802186 13.7842 0.971368C13.8932 1.05596 13.8054 1.20472 13.8054 1.30973C14.0916 1.96604 14.2446 2.68361 14.0023 3.38075C13.8054 3.61411 13.454 3.67682 13.1693 3.78329C13.1238 4.07936 13.2344 4.35209 13.2783 4.64961C13.2132 4.69191 13.1693 4.73421 13.1026 4.7765C13.5206 4.75462 13.9371 4.67003 14.3551 4.5869C14.5081 4.43814 14.7489 4.52273 14.9458 4.50085C14.9685 4.20478 15.0791 3.93059 15.0791 3.63452C15.1398 3.63053 15.1993 3.61621 15.2548 3.59223C15.276 3.80371 15.2548 4.01518 15.3199 4.22666C15.4304 4.31125 15.6061 4.26896 15.7379 4.28937C15.7379 4.37397 15.7379 4.45856 15.7591 4.54315C18.305 4.52273 20.8736 4.54315 23.4195 4.54315V4.90339H23.6618V3.52806H23.9465C23.9465 3.90726 23.9253 4.2675 23.9465 4.64816C23.9767 4.67488 24.0161 4.68994 24.0571 4.69045C24.0571 4.73275 24.0783 4.81734 24.0783 4.85963C24.1662 4.77504 24.2752 4.71087 24.4085 4.75317C24.4297 4.81734 24.4524 4.88005 24.4736 4.96464C24.3858 5.04923 24.3418 5.15424 24.3858 5.28259C25.0885 5.30301 25.7912 5.28259 26.5152 5.28259C26.5818 5.198 26.6908 5.1557 26.8014 5.11341C26.8485 5.13673 26.8927 5.16511 26.9332 5.198H27.963C28.0029 5.35698 28.0106 5.52187 27.9858 5.68367H26.9317C26.8925 5.72426 26.8482 5.76002 26.7999 5.79013C26.6908 5.72596 26.603 5.68367 26.494 5.62095H24.5842C24.2101 5.72596 23.8148 5.70554 23.4422 5.64137V6.04245H20.3011C20.1782 6.14727 20.025 6.21342 19.8619 6.23205C19.9285 6.54999 19.556 6.63459 19.4227 6.86794C19.3383 6.9873 19.2153 7.07649 19.0728 7.12171C18.9623 7.77656 19.2046 8.39058 19.3803 9.00313C19.1834 9.04543 18.9623 9.10814 18.7654 9.15044C18.6548 9.57339 18.5458 10.0168 18.458 10.4397C18.4084 10.6291 18.313 10.8045 18.1795 10.9515C18.0461 11.0985 17.8783 11.213 17.6901 11.2856C17.4266 11.5817 17.0752 11.8778 16.6572 11.8982C16.5042 11.9419 16.3937 11.8355 16.2846 11.7509C15.7364 11.7932 15.2305 11.5394 14.7474 11.3279C14.2219 11.0946 13.7387 10.7985 13.2329 10.5258C13.2783 10.8204 13.1238 11.0742 13.0133 11.3279C13.2556 11.4329 13.5843 11.5175 13.716 11.7713C13.8039 11.9609 13.8917 12.1738 13.8917 12.4057C13.8705 13.167 13.7827 13.9284 13.7387 14.6882C13.7599 15.2381 13.4752 15.7879 13.0799 16.1904C12.8164 16.1686 12.5968 16.0621 12.356 15.9571C12.2681 16.1467 12.0697 16.3363 12.1803 16.5696C12.2681 16.8453 12.2681 17.1414 12.3999 17.3951C13.1527 18.1466 13.7751 19.0099 14.2431 19.9518C14.7035 20.8619 15.0548 21.8128 15.4289 22.7637C15.4941 22.7637 15.6258 22.7419 15.6925 22.7419C15.7803 23.0175 15.6925 23.334 15.8681 23.5878C16.0211 23.8211 15.9772 24.0953 15.9772 24.3695C15.9333 25.0039 15.8893 25.6384 15.8242 26.2728C15.7788 26.7162 15.6697 27.161 15.6046 27.6044C15.6258 27.9427 15.7803 28.2811 15.7576 28.6195C15.7364 28.936 15.7364 29.2743 15.4728 29.5062C15.4941 30.2252 15.2972 30.9443 15.5607 31.6414C15.9121 32.1081 16.3073 32.55 16.7238 32.9526C17.1842 33.1641 17.734 33.2063 18.1293 33.587C18.2808 33.8204 18.1944 34.0931 18.1505 34.3469C17.2111 34.4737 16.2578 34.4737 15.3184 34.3469C14.9458 34.2623 14.5944 34.115 14.2219 34.0727C13.716 34.0931 13.1238 34.2841 12.6619 33.9458C12.6195 33.3755 12.8391 32.8257 12.9482 32.2758C12.9921 32.0862 13.1905 31.9594 13.1678 31.7683C13.1223 31.112 13.0799 30.4367 13.036 29.7819C12.9482 29.7381 12.7937 29.6973 12.8164 29.5704C12.8164 29.2524 12.7074 28.936 12.6195 28.6399C12.4725 27.83 12.3915 27.0103 12.3772 26.1882C12.356 25.9549 12.5089 25.7857 12.6846 25.6384C12.7301 25.2796 12.7725 24.8989 12.7952 24.5387C12.7286 24.3491 12.5756 24.2003 12.4877 24.0311C12.0925 24.0749 11.5215 24.158 11.2807 23.757C10.7097 22.9329 10.116 22.087 9.54656 21.263C9.30424 21.2411 9.01951 21.263 8.79991 21.1142C8.55759 20.8604 8.40462 20.5235 8.25014 20.2056C8.18502 20.4594 8.1411 20.7336 7.98662 20.945C7.85485 21.1565 7.63676 21.3053 7.48228 21.4949C7.32932 21.8332 7.19755 22.1716 7.06579 22.51C6.91131 22.9329 6.69171 23.3559 6.64779 23.8211C6.63108 24.0455 6.57952 24.2663 6.49482 24.476C6.38426 24.6452 6.18737 24.7093 6.01169 24.7925C5.87993 25.0681 5.79209 25.3423 5.5952 25.5757C5.46344 25.723 5.24383 25.7653 5.15599 25.9549C5.06815 26.2086 4.93639 26.442 4.82583 26.6739C4.78191 26.9277 4.95759 27.2033 4.87126 27.4556C4.71678 28.0901 4.38662 28.6822 4.08069 29.2524C3.92621 29.6754 3.81716 30.1202 3.59604 30.5213C3.50972 30.6905 3.29011 30.7328 3.11443 30.7547C2.91754 31.2185 2.69642 31.6633 2.56617 32.149C2.50718 32.6188 2.49197 33.0927 2.52074 33.5651C2.52074 33.7766 2.65402 33.9458 2.74186 34.1354C2.82818 34.3892 2.76306 34.6429 2.71914 34.8967C1.86344 35.0032 0.985023 35.0863 0.150527 34.834C0.0626848 34.7698 0.0854024 34.6648 0.0626847 34.5802C-0.00243934 34.1996 -0.04636 33.7985 0.0854025 33.4382C0.370131 32.445 0.612453 31.4518 0.897181 30.4586C0.788136 30.3521 0.633656 30.269 0.633656 30.0984C0.612453 29.8242 0.633656 29.5281 0.700294 29.2524C0.832057 28.7872 1.18191 28.4284 1.35759 27.9836C1.42423 27.794 1.40303 27.6044 1.42423 27.4148C1.42423 26.97 1.68776 26.6112 1.88464 26.2305C2.08153 25.9126 2.23601 25.5742 2.49954 25.3C2.67522 25.1527 2.67522 24.9208 2.80698 24.7298C2.93874 24.4964 3.15835 24.3068 3.15835 24.0311C3.20227 23.6942 3.07051 23.3559 3.11291 23.0175C3.20227 22.0243 3.40067 21.0515 3.57484 20.0568C3.487 19.9518 3.35524 19.8468 3.31131 19.698C3.33403 19.593 3.35675 19.5084 3.37795 19.402L3.18107 19.0855C3.26739 18.9586 3.35523 18.8113 3.44308 18.6844C3.35523 18.6202 3.24619 18.5357 3.15835 18.4729C3.26739 18.155 3.22347 17.6897 3.61876 17.5424C3.6642 17.5629 3.77324 17.5847 3.81565 17.6052C3.75052 17.0568 3.75052 16.4851 3.6854 15.9352C3.53939 15.3472 3.50197 14.7389 3.57484 14.1384C3.79444 13.8219 4.21093 13.695 4.58502 13.6746C4.10189 13.5681 3.61876 13.5258 3.15835 13.3785C3.13563 12.9979 3.20227 12.6172 3.26739 12.2365C3.46428 11.4971 3.37795 10.7358 3.487 9.97593C3.59756 9.76299 3.88229 9.7207 4.12309 9.76299C4.40934 9.80675 4.69406 9.7207 4.98031 9.6361C4.98031 9.5311 5.00151 9.40275 4.98031 9.29774C4.80462 8.5583 4.84854 7.79698 4.98031 7.07942C5.15599 6.14892 5.55128 5.24029 6.27522 4.58544C6.75835 4.14061 7.46108 3.92913 8.11838 3.95101C8.33798 3.95101 8.46974 4.16249 8.64543 4.28937C8.73327 4.20478 8.82111 4.12019 8.88775 4.0356C8.77719 3.67536 8.60151 3.2947 8.62422 2.91404C8.66815 2.06813 8.95287 1.20181 9.61169 0.631546M16.4603 6.61417C16.5042 6.65646 16.5042 6.65646 16.4603 6.61417V6.61417ZM16.7678 6.65646C16.789 6.80377 16.8329 6.95253 16.745 7.07942C16.636 7.12171 16.5027 7.12171 16.3937 7.18443C16.7011 7.18443 17.0086 7.2063 17.3175 7.18443C17.5583 7.12171 17.469 6.82564 17.469 6.65646C17.3175 6.48728 16.9874 6.59229 16.7678 6.65646ZM15.9999 7.54467C16.2195 7.77656 16.3285 8.13534 16.5254 8.3687C16.8117 8.00846 17.0313 7.6278 17.3599 7.31131C16.9662 7.28944 16.5694 7.33319 16.1756 7.28944C16.1089 7.37403 16.065 7.46008 15.9999 7.54467Z" fill="#FF9611"/>
</svg>
