<svg xmlns="http://www.w3.org/2000/svg" width="24" height="31" viewBox="0 0 24 31" fill="none">
<path d="M8.23989 1.04258C8.5287 0.79909 8.87679 0.629915 9.25174 0.550792C9.6267 0.471668 10.0164 0.485168 10.3844 0.590035C10.6674 0.680043 10.9115 0.843807 11.175 1.00632C11.3827 1.13258 11.6268 1.18759 11.815 1.3326C11.9085 1.40511 11.8332 1.53262 11.8332 1.62263C12.0785 2.18518 12.2096 2.80023 12.0019 3.39779C11.8332 3.5978 11.532 3.65156 11.288 3.74282C11.249 3.99659 11.3438 4.23036 11.3814 4.48538C11.3256 4.52164 11.288 4.55789 11.2308 4.59414C11.5891 4.57539 11.9461 4.50289 12.3044 4.43163C12.4355 4.30412 12.6419 4.37662 12.8107 4.35787C12.8302 4.1041 12.9249 3.86908 12.9249 3.61531C12.9769 3.61188 13.0279 3.59961 13.0755 3.57905C13.0937 3.76032 13.0755 3.94159 13.1313 4.12285C13.2261 4.19536 13.3767 4.15911 13.4896 4.17661C13.4896 4.24911 13.4896 4.32162 13.5078 4.39413C15.69 4.37662 17.8917 4.39413 20.0739 4.39413V4.7029H20.2816V3.52405H20.5256C20.5256 3.84908 20.5074 4.15786 20.5256 4.48413C20.5515 4.50704 20.5852 4.51995 20.6204 4.52039C20.6204 4.55664 20.6386 4.62915 20.6386 4.6654C20.7138 4.59289 20.8073 4.53789 20.9215 4.57414C20.9397 4.62915 20.9592 4.6829 20.9774 4.75541C20.9021 4.82792 20.8644 4.91792 20.9021 5.02793C21.5044 5.04543 22.1068 5.02793 22.7273 5.02793C22.7844 4.95543 22.8779 4.91917 22.9726 4.88292C23.013 4.90291 23.0509 4.92724 23.0856 4.95543H23.9683C24.0025 5.0917 24.0091 5.23303 23.9878 5.37171H23.0843C23.0507 5.40651 23.0128 5.43716 22.9713 5.46297C22.8779 5.40797 22.8026 5.37171 22.7091 5.31796H21.0721C20.7515 5.40797 20.4127 5.39047 20.0933 5.33546V5.67924H17.401C17.2956 5.76909 17.1642 5.82579 17.0245 5.84176C17.0816 6.11428 16.7623 6.18679 16.648 6.38681C16.5756 6.48911 16.4702 6.56557 16.3482 6.60432C16.2534 7.16563 16.4611 7.69192 16.6117 8.21697C16.4429 8.25322 16.2534 8.30698 16.0846 8.34323C15.9899 8.70576 15.8964 9.0858 15.8211 9.44833C15.7786 9.61064 15.6969 9.76096 15.5825 9.88699C15.4681 10.013 15.3243 10.1112 15.1629 10.1734C14.9371 10.4272 14.6359 10.6809 14.2776 10.6984C14.1465 10.7359 14.0517 10.6447 13.9583 10.5722C13.4883 10.6084 13.0547 10.3909 12.6406 10.2096C12.1902 10.0096 11.7761 9.75586 11.3425 9.52209C11.3814 9.77461 11.249 9.99213 11.1542 10.2096C11.3619 10.2997 11.6436 10.3722 11.7566 10.5897C11.8319 10.7522 11.9072 10.9347 11.9072 11.1335C11.889 11.786 11.8137 12.4386 11.7761 13.0899C11.7942 13.5612 11.5502 14.0325 11.2114 14.3775C10.9855 14.3588 10.7972 14.2675 10.5908 14.1775C10.5155 14.34 10.3455 14.5025 10.4403 14.7026C10.5156 14.9388 10.5155 15.1926 10.6285 15.4101C11.2738 16.0543 11.8072 16.7942 12.2083 17.6016C12.603 18.3816 12.9042 19.1967 13.2248 20.0118C13.2806 20.0118 13.3936 19.993 13.4507 19.993C13.526 20.2293 13.4507 20.5006 13.6013 20.7181C13.7324 20.9181 13.6947 21.1531 13.6947 21.3882C13.6571 21.932 13.6194 22.4757 13.5636 23.0195C13.5247 23.3996 13.4312 23.7809 13.3754 24.1609C13.3936 24.4509 13.526 24.741 13.5065 25.031C13.4883 25.3023 13.4883 25.5923 13.2624 25.791C13.2806 26.4074 13.1119 27.0237 13.3377 27.6212C13.6389 28.0212 13.9777 28.4 14.3347 28.7451C14.7294 28.9263 15.2006 28.9626 15.5394 29.2889C15.6692 29.4889 15.5952 29.7227 15.5576 29.9402C14.7523 30.0489 13.9353 30.0489 13.13 29.9402C12.8107 29.8677 12.5095 29.7414 12.1902 29.7052C11.7566 29.7227 11.249 29.8864 10.8531 29.5964C10.8167 29.1076 11.005 28.6363 11.0984 28.165C11.1361 28.0025 11.3061 27.8937 11.2867 27.73C11.2477 27.1674 11.2114 26.5886 11.1737 26.0273C11.0984 25.9898 10.966 25.9548 10.9855 25.8461C10.9855 25.5735 10.892 25.3023 10.8167 25.0485C10.6908 24.3543 10.6213 23.6517 10.609 22.947C10.5908 22.747 10.722 22.602 10.8725 22.4757C10.9115 22.1682 10.9478 21.8419 10.9673 21.5332C10.9102 21.3707 10.7791 21.2431 10.7038 21.0981C10.365 21.1356 9.87556 21.2069 9.66915 20.8631C9.17975 20.1568 8.67087 19.4317 8.18277 18.7254C7.97506 18.7067 7.73101 18.7254 7.54278 18.5979C7.33507 18.3804 7.20396 18.0916 7.07155 17.8191C7.01573 18.0366 6.97808 18.2716 6.84567 18.4529C6.73273 18.6342 6.5458 18.7617 6.41338 18.9242C6.28227 19.2142 6.16933 19.5042 6.05639 19.7943C5.92398 20.1568 5.73575 20.5193 5.6981 20.9181C5.68378 21.1105 5.63959 21.2997 5.56699 21.4794C5.47222 21.6244 5.30346 21.6794 5.15288 21.7507C5.03994 21.987 4.96464 22.222 4.79589 22.422C4.68295 22.5483 4.49471 22.5845 4.41942 22.747C4.34413 22.9645 4.23119 23.1646 4.13642 23.3633C4.09878 23.5809 4.24936 23.8171 4.17537 24.0334C4.04296 24.5772 3.75996 25.0847 3.49773 25.5735C3.36532 25.9361 3.27185 26.3173 3.08232 26.6611C3.00833 26.8061 2.8201 26.8424 2.66951 26.8611C2.50075 27.2587 2.31122 27.64 2.19958 28.0563C2.14901 28.4589 2.13598 28.8652 2.16063 29.2701C2.16063 29.4514 2.27487 29.5964 2.35016 29.7589C2.42416 29.9764 2.36834 30.1939 2.33069 30.4115C1.59723 30.5027 0.844305 30.574 0.129023 30.3577C0.0537299 30.3027 0.0732021 30.2127 0.0537297 30.1402C-0.00209086 29.8139 -0.0397372 29.4701 0.0732022 29.1614C0.317255 28.31 0.52496 27.4587 0.769013 26.6074C0.675545 26.5161 0.543134 26.4449 0.543134 26.2986C0.52496 26.0636 0.543134 25.8098 0.600252 25.5735C0.713192 25.1747 1.01307 24.8672 1.16365 24.4859C1.22077 24.3234 1.2026 24.1609 1.22077 23.9984C1.22077 23.6171 1.44665 23.3096 1.61541 22.9833C1.78417 22.7108 1.91658 22.4207 2.14246 22.1857C2.29305 22.0595 2.29305 21.8607 2.40598 21.6969C2.51892 21.4969 2.70716 21.3344 2.70716 21.0981C2.7448 20.8094 2.63186 20.5193 2.66821 20.2293C2.7448 19.378 2.91486 18.5441 3.06415 17.6916C2.98886 17.6016 2.87592 17.5116 2.83827 17.384C2.85774 17.294 2.87721 17.2215 2.89539 17.1303L2.72663 16.859C2.80062 16.7502 2.87592 16.624 2.95121 16.5152C2.87592 16.4602 2.78245 16.3877 2.70716 16.3339C2.80062 16.0614 2.76298 15.6626 3.10179 15.5364C3.14074 15.5539 3.23421 15.5726 3.27055 15.5901C3.21473 15.1201 3.21473 14.63 3.15891 14.1588C3.03376 13.6547 3.00168 13.1334 3.06415 12.6186C3.25238 12.3473 3.60937 12.2386 3.93002 12.2211C3.51591 12.1298 3.10179 12.0936 2.70716 11.9673C2.68768 11.641 2.7448 11.3147 2.80062 10.9885C2.96938 10.3547 2.89539 9.7021 2.98886 9.0508C3.08362 8.86828 3.32767 8.83203 3.53408 8.86828C3.77943 8.90578 4.02348 8.83203 4.26884 8.75952C4.26884 8.66951 4.28701 8.5595 4.26884 8.46949C4.11825 7.83569 4.1559 7.18313 4.26884 6.56807C4.41942 5.7705 4.75824 4.99168 5.37876 4.43038C5.79287 4.0491 6.39521 3.86783 6.95861 3.88658C7.14684 3.88658 7.25978 4.06785 7.41037 4.17661C7.48566 4.1041 7.56095 4.03159 7.61807 3.95909C7.52331 3.65031 7.37272 3.32403 7.39219 2.99775C7.42984 2.27269 7.67389 1.53012 8.23859 1.04133M14.1088 6.16929C14.1465 6.20554 14.1465 6.20554 14.1088 6.16929V6.16929ZM14.3724 6.20554C14.3905 6.3318 14.4282 6.45931 14.3529 6.56807C14.2594 6.60433 14.1452 6.60433 14.0517 6.65808C14.3152 6.65808 14.5788 6.67683 14.8436 6.65808C15.05 6.60433 14.9734 6.35055 14.9734 6.20554C14.8436 6.06053 14.5606 6.15053 14.3724 6.20554ZM13.7142 6.96686C13.9024 7.16563 13.9959 7.47315 14.1647 7.67317C14.41 7.36439 14.5982 7.03811 14.8799 6.76684C14.5424 6.74809 14.2023 6.78559 13.8648 6.74809C13.8077 6.82059 13.77 6.89435 13.7142 6.96686Z" fill="#FF9611"/>
</svg>