<svg width="24" height="30" viewBox="0 0 24 30" fill="none" xmlns="http://www.w3.org/2000/svg">
<path id="Vector" d="M8.23989 0.542575C8.5287 0.29909 8.87679 0.129915 9.25174 0.0507917C9.6267 -0.0283316 10.0164 -0.0148319 10.3844 0.0900347C10.6674 0.180043 10.9115 0.343807 11.175 0.506322C11.3827 0.632583 11.6268 0.687588 11.815 0.832601C11.9085 0.905108 11.8332 1.03262 11.8332 1.12263C12.0785 1.68518 12.2096 2.30023 12.0019 2.89779C11.8332 3.0978 11.532 3.15156 11.288 3.24282C11.249 3.49659 11.3438 3.73036 11.3814 3.98538C11.3256 4.02164 11.288 4.05789 11.2308 4.09414C11.5891 4.07539 11.9461 4.00289 12.3044 3.93163C12.4355 3.80412 12.6419 3.87662 12.8107 3.85787C12.8302 3.6041 12.9249 3.36908 12.9249 3.11531C12.9769 3.11188 13.0279 3.09961 13.0755 3.07905C13.0937 3.26032 13.0755 3.44159 13.1313 3.62285C13.2261 3.69536 13.3767 3.65911 13.4896 3.67661C13.4896 3.74911 13.4896 3.82162 13.5078 3.89413C15.69 3.87662 17.8917 3.89413 20.0739 3.89413V4.2029H20.2816V3.02405H20.5256C20.5256 3.34908 20.5074 3.65786 20.5256 3.98413C20.5515 4.00704 20.5852 4.01995 20.6204 4.02039C20.6204 4.05664 20.6386 4.12915 20.6386 4.1654C20.7138 4.09289 20.8073 4.03789 20.9215 4.07414C20.9397 4.12915 20.9592 4.1829 20.9774 4.25541C20.9021 4.32792 20.8644 4.41792 20.9021 4.52793C21.5044 4.54543 22.1068 4.52793 22.7273 4.52793C22.7844 4.45543 22.8779 4.41917 22.9726 4.38292C23.013 4.40291 23.0509 4.42724 23.0856 4.45543H23.9683C24.0025 4.5917 24.0091 4.73303 23.9878 4.87171H23.0843C23.0507 4.90651 23.0128 4.93716 22.9713 4.96297C22.8779 4.90797 22.8026 4.87171 22.7091 4.81796H21.0721C20.7515 4.90797 20.4127 4.89047 20.0933 4.83546V5.17924H17.401C17.2956 5.26909 17.1642 5.32579 17.0245 5.34176C17.0816 5.61428 16.7623 5.68679 16.648 5.88681C16.5756 5.98911 16.4702 6.06557 16.3482 6.10432C16.2534 6.66563 16.4611 7.19192 16.6117 7.71697C16.4429 7.75322 16.2534 7.80698 16.0846 7.84323C15.9899 8.20576 15.8964 8.5858 15.8211 8.94833C15.7786 9.11064 15.6969 9.26096 15.5825 9.38699C15.4681 9.51301 15.3243 9.61116 15.1629 9.6734C14.9371 9.92717 14.6359 10.1809 14.2776 10.1984C14.1465 10.2359 14.0517 10.1447 13.9583 10.0722C13.4883 10.1084 13.0547 9.89092 12.6406 9.70965C12.1902 9.50963 11.7761 9.25586 11.3425 9.02209C11.3814 9.27461 11.249 9.49213 11.1542 9.70965C11.3619 9.79966 11.6436 9.87216 11.7566 10.0897C11.8319 10.2522 11.9072 10.4347 11.9072 10.6335C11.889 11.286 11.8137 11.9386 11.7761 12.5899C11.7942 13.0612 11.5502 13.5325 11.2114 13.8775C10.9855 13.8588 10.7972 13.7675 10.5908 13.6775C10.5155 13.84 10.3455 14.0025 10.4403 14.2026C10.5156 14.4388 10.5155 14.6926 10.6285 14.9101C11.2738 15.5543 11.8072 16.2942 12.2083 17.1016C12.603 17.8816 12.9042 18.6967 13.2248 19.5118C13.2806 19.5118 13.3936 19.493 13.4507 19.493C13.526 19.7293 13.4507 20.0006 13.6013 20.2181C13.7324 20.4181 13.6947 20.6531 13.6947 20.8882C13.6571 21.432 13.6194 21.9757 13.5636 22.5195C13.5247 22.8996 13.4312 23.2809 13.3754 23.6609C13.3936 23.9509 13.526 24.241 13.5065 24.531C13.4883 24.8023 13.4883 25.0923 13.2624 25.291C13.2806 25.9074 13.1119 26.5237 13.3377 27.1212C13.6389 27.5212 13.9777 27.9 14.3347 28.2451C14.7294 28.4263 15.2006 28.4626 15.5394 28.7889C15.6692 28.9889 15.5952 29.2227 15.5576 29.4402C14.7523 29.5489 13.9353 29.5489 13.13 29.4402C12.8107 29.3677 12.5095 29.2414 12.1902 29.2052C11.7566 29.2227 11.249 29.3864 10.8531 29.0964C10.8167 28.6076 11.005 28.1363 11.0984 27.665C11.1361 27.5025 11.3061 27.3937 11.2867 27.23C11.2477 26.6674 11.2114 26.0886 11.1737 25.5273C11.0984 25.4898 10.966 25.4548 10.9855 25.3461C10.9855 25.0735 10.892 24.8023 10.8167 24.5485C10.6908 23.8543 10.6213 23.1517 10.609 22.447C10.5908 22.247 10.722 22.102 10.8725 21.9757C10.9115 21.6682 10.9478 21.3419 10.9673 21.0332C10.9102 20.8707 10.7791 20.7431 10.7038 20.5981C10.365 20.6356 9.87556 20.7069 9.66915 20.3631C9.17975 19.6568 8.67087 18.9317 8.18277 18.2254C7.97506 18.2067 7.73101 18.2254 7.54278 18.0979C7.33507 17.8804 7.20396 17.5916 7.07155 17.3191C7.01573 17.5366 6.97808 17.7716 6.84567 17.9529C6.73273 18.1342 6.5458 18.2617 6.41338 18.4242C6.28227 18.7142 6.16933 19.0042 6.05639 19.2943C5.92398 19.6568 5.73575 20.0193 5.6981 20.4181C5.68378 20.6105 5.63959 20.7997 5.56699 20.9794C5.47222 21.1244 5.30346 21.1794 5.15288 21.2507C5.03994 21.487 4.96464 21.722 4.79589 21.922C4.68295 22.0483 4.49471 22.0845 4.41942 22.247C4.34413 22.4645 4.23119 22.6646 4.13642 22.8633C4.09878 23.0809 4.24936 23.3171 4.17537 23.5334C4.04296 24.0772 3.75996 24.5847 3.49773 25.0735C3.36532 25.4361 3.27185 25.8173 3.08232 26.1611C3.00833 26.3061 2.8201 26.3424 2.66951 26.3611C2.50075 26.7587 2.31122 27.14 2.19958 27.5563C2.14901 27.9589 2.13598 28.3652 2.16063 28.7701C2.16063 28.9514 2.27487 29.0964 2.35016 29.2589C2.42416 29.4764 2.36834 29.6939 2.33069 29.9115C1.59723 30.0027 0.844305 30.074 0.129023 29.8577C0.0537299 29.8027 0.0732021 29.7127 0.0537297 29.6402C-0.00209086 29.3139 -0.0397372 28.9701 0.0732022 28.6614C0.317255 27.81 0.52496 26.9587 0.769013 26.1074C0.675545 26.0161 0.543134 25.9449 0.543134 25.7986C0.52496 25.5636 0.543134 25.3098 0.600252 25.0735C0.713192 24.6747 1.01307 24.3672 1.16365 23.9859C1.22077 23.8234 1.2026 23.6609 1.22077 23.4984C1.22077 23.1171 1.44665 22.8096 1.61541 22.4833C1.78417 22.2108 1.91658 21.9207 2.14246 21.6857C2.29305 21.5595 2.29305 21.3607 2.40598 21.1969C2.51892 20.9969 2.70716 20.8344 2.70716 20.5981C2.7448 20.3094 2.63186 20.0193 2.66821 19.7293C2.7448 18.878 2.91486 18.0441 3.06415 17.1916C2.98886 17.1016 2.87592 17.0116 2.83827 16.884C2.85774 16.794 2.87721 16.7215 2.89539 16.6303L2.72663 16.359C2.80062 16.2502 2.87592 16.124 2.95121 16.0152C2.87592 15.9602 2.78245 15.8877 2.70716 15.8339C2.80062 15.5614 2.76298 15.1626 3.10179 15.0364C3.14074 15.0539 3.23421 15.0726 3.27055 15.0901C3.21473 14.6201 3.21473 14.13 3.15891 13.6588C3.03376 13.1547 3.00168 12.6334 3.06415 12.1186C3.25238 11.8473 3.60937 11.7386 3.93002 11.7211C3.51591 11.6298 3.10179 11.5936 2.70716 11.4673C2.68768 11.141 2.7448 10.8147 2.80062 10.4885C2.96938 9.85466 2.89539 9.2021 2.98886 8.5508C3.08362 8.36828 3.32767 8.33203 3.53408 8.36828C3.77943 8.40578 4.02348 8.33203 4.26884 8.25952C4.26884 8.16951 4.28701 8.0595 4.26884 7.96949C4.11825 7.33569 4.1559 6.68313 4.26884 6.06807C4.41942 5.2705 4.75824 4.49168 5.37876 3.93038C5.79287 3.5491 6.39521 3.36783 6.95861 3.38658C7.14684 3.38658 7.25978 3.56785 7.41037 3.67661C7.48566 3.6041 7.56095 3.53159 7.61807 3.45909C7.52331 3.15031 7.37272 2.82403 7.39219 2.49775C7.42984 1.77269 7.67389 1.03012 8.23859 0.541325M14.1088 5.66929C14.1465 5.70554 14.1465 5.70554 14.1088 5.66929V5.66929ZM14.3724 5.70554C14.3905 5.8318 14.4282 5.95931 14.3529 6.06807C14.2594 6.10433 14.1452 6.10433 14.0517 6.15808C14.3152 6.15808 14.5788 6.17683 14.8436 6.15808C15.05 6.10433 14.9734 5.85055 14.9734 5.70554C14.8436 5.56053 14.5606 5.65053 14.3724 5.70554ZM13.7142 6.46686C13.9024 6.66563 13.9959 6.97315 14.1647 7.17317C14.41 6.86439 14.5982 6.53811 14.8799 6.26684C14.5424 6.24809 14.2023 6.28559 13.8648 6.24809C13.8077 6.32059 13.77 6.39435 13.7142 6.46686Z" fill="#787C87"/>
</svg>
