<svg width="20" height="20" viewBox="0 0 20 20" fill="none" xmlns="http://www.w3.org/2000/svg">
<path fill-rule="evenodd" clip-rule="evenodd" d="M4.16144 20C3.63432 20 3.17952 20 2.80495 19.9694C2.40964 19.9371 2.01643 19.8658 1.63807 19.673C1.07356 19.3855 0.614544 18.9264 0.326962 18.3619C0.134181 17.9836 0.0628717 17.5904 0.0305719 17.195C-3.32177e-05 16.8205 -1.74197e-05 16.3657 8.91076e-07 15.8386V6.16144C-1.74197e-05 5.63432 -3.32147e-05 5.17952 0.0305719 4.80496C0.0628762 4.40961 0.134197 4.01639 0.327007 3.638C0.614619 3.07345 1.07363 2.61456 1.638 2.32699C2.01638 2.13418 2.40962 2.06287 2.80496 2.03057C3.14074 2.00314 3.54097 2.00031 4 2.00003V1C4 0.447715 4.44772 0 5 0C5.55228 0 6 0.447715 6 1V2H14V1C14 0.447715 14.4477 0 15 0C15.5523 0 16 0.447715 16 1V2.00003C16.459 2.00031 16.8593 2.00314 17.195 2.03057C17.5904 2.06287 17.9836 2.13418 18.362 2.32699C18.9264 2.61456 19.3854 3.07345 19.673 3.638C19.8658 4.01639 19.9371 4.40961 19.9694 4.80496C20 5.17952 20 5.63426 20 6.16138V15.8386C20 16.3657 20 16.8205 19.9694 17.195C19.9371 17.5904 19.8658 17.9836 19.673 18.3619C19.3855 18.9264 18.9264 19.3855 18.3619 19.673C17.9836 19.8658 17.5904 19.9371 17.195 19.9694C16.8205 20 16.3657 20 15.8386 20H4.16144ZM4.2 4H15.8C16.3766 4 16.7488 4.00078 17.0322 4.02393C17.3039 4.04612 17.4046 4.0838 17.454 4.10898C17.6422 4.20487 17.7952 4.35786 17.8909 4.54592C17.9161 4.59535 17.9539 4.69618 17.9761 4.96784C17.9992 5.25117 18 5.62344 18 6.2V7H2V6.2C2 5.62344 2.00078 5.25117 2.02393 4.96784C2.04613 4.69618 2.08386 4.59535 2.10906 4.54592C2.20485 4.35786 2.35783 4.20487 2.54601 4.10898C2.59543 4.0838 2.69614 4.04612 2.96782 4.02393C3.25116 4.00078 3.62345 4 4.2 4ZM2 9V15.8C2 16.3765 2.00078 16.7488 2.02393 17.0322C2.04613 17.3039 2.08386 17.4047 2.10904 17.4541C2.20486 17.6422 2.35795 17.7952 2.54603 17.891C2.59544 17.9162 2.69614 17.9539 2.96782 17.9761C3.25117 17.9992 3.62345 18 4.2 18H15.8C16.3766 18 16.7488 17.9992 17.0322 17.9761C17.3039 17.9539 17.4046 17.9162 17.454 17.891C17.6421 17.7952 17.7951 17.6422 17.891 17.4541C17.9161 17.4047 17.9539 17.3039 17.9761 17.0322C17.9992 16.7488 18 16.3765 18 15.8V9H2Z" fill="#49494A"/>
</svg>
