<svg width="120" height="170" viewBox="0 0 120 170" fill="none" xmlns="http://www.w3.org/2000/svg">
<path fill-rule="evenodd" clip-rule="evenodd" d="M119.998 85.0642V163.333C119.998 167.015 117.051 170 113.417 170H6.58143C2.94655 170 0 167.015 0 163.333V6.66667C0 2.98477 2.94661 0 6.58144 0H113.417C117.051 0 119.998 2.9847 119.998 6.66667V84.9364C119.999 84.9471 119.999 84.9577 120 84.9684C120 84.9754 120 84.9823 120 84.9893C120 84.993 120 84.9967 120 85.0003C120 85.0103 120 85.0203 120 85.0303C119.999 85.0416 119.999 85.0529 119.998 85.0642ZM3.29072 6.66667C3.29072 4.82572 4.76403 3.33333 6.58144 3.33333H113.417C115.234 3.33333 116.708 4.82579 116.708 6.66667V83.7684H3.29072V6.66667ZM3.29072 86.2322V163.333C3.29072 165.174 4.7641 166.667 6.58143 166.667H113.417C115.234 166.667 116.708 165.174 116.708 163.333V86.2322H3.29072Z" fill="#49494A"/>
<path fill-rule="evenodd" clip-rule="evenodd" d="M101.25 108C101.94 108 102.5 108.56 102.5 109.25L102.5 149.25C102.5 149.94 101.94 150.5 101.25 150.5C100.56 150.5 100 149.94 100 149.25L100 109.25C100 108.56 100.56 108 101.25 108Z" fill="#49494A"/>
<path fill-rule="evenodd" clip-rule="evenodd" d="M86.25 108C86.9404 108 87.5 108.56 87.5 109.25L87.5 149.25C87.5 149.94 86.9404 150.5 86.25 150.5C85.5596 150.5 85 149.94 85 149.25L85 109.25C85 108.56 85.5596 108 86.25 108Z" fill="#49494A"/>
<path fill-rule="evenodd" clip-rule="evenodd" d="M71.25 108C71.9404 108 72.5 108.56 72.5 109.25L72.5 149.25C72.5 149.94 71.9404 150.5 71.25 150.5C70.5596 150.5 70 149.94 70 149.25L70 109.25C70 108.56 70.5596 108 71.25 108Z" fill="#49494A"/>
</svg>
