<svg width="30" height="30" viewBox="0 0 30 30" fill="none" xmlns="http://www.w3.org/2000/svg">
<g id="svgg">
<path id="path0" fill-rule="evenodd" clip-rule="evenodd" d="M11.8593 0.318523C11.1229 0.860705 10.8967 0.918548 9.44568 0.940143C8.15748 0.959039 7.90765 0.922019 7.63114 0.672137C7.50854 0.561849 0.74577 0.529457 0.459202 0.637817C0.299095 0.698745 0.281305 0.758516 0.125839 1.74532C0.105342 1.8745 0.136668 2.20729 0.195064 2.48455C0.313791 3.0491 0.320752 3.48293 0.225616 4.44852C0.18965 4.81178 0.144789 5.29727 0.125452 5.5271C0.106503 5.75693 0.0705367 6.13291 0.0461726 6.36274C-0.0118371 6.91071 -0.0164778 8.83881 0.0395982 9.1261C0.091807 9.39179 0.104182 9.44269 0.293681 10.1546C0.439092 10.7014 0.473511 11.4741 0.412021 12.8219C0.391137 13.2881 0.44992 13.4543 0.873778 14.1222C1.19477 14.6285 0.978195 15.2471 0.319979 15.7036L0.14943 15.822L0.194291 17.2461C0.244953 18.8418 0.245339 18.8441 0.624336 19.2938L0.898142 19.6181L0.878805 20.5902C0.851734 21.9638 0.780962 22.5372 0.612347 22.7439C0.173407 23.2819 0.140535 23.6 0.245726 26.2862C0.281305 27.1978 0.277051 27.7639 0.233351 27.9494C0.124679 28.4102 0.26893 28.5791 0.872618 28.6987C1.71453 28.8656 2.39441 28.8791 3.83073 28.7577C3.99045 28.7442 4.32381 28.716 4.57209 28.6948C5.17268 28.6439 5.76245 28.6489 6.20642 28.7087C6.60436 28.7619 7.9761 28.7739 8.89072 28.7314C10.5316 28.6555 11.7417 28.9713 12.4792 29.6681C12.8833 30.0499 12.9363 30.0695 13.0871 29.8922C13.5895 29.3014 13.7608 29.2524 14.4658 29.5C14.6608 29.5682 14.9543 29.6253 15.1179 29.6265C15.3209 29.6276 15.4706 29.6716 15.5889 29.7645C15.7687 29.9057 16.1272 29.9022 16.3863 29.7572C16.9169 29.4595 17.2754 29.4136 19.4292 29.3681C20.5812 29.3434 21.6064 29.3045 21.7078 29.2806C22.7013 29.0492 22.726 29.0461 23.0903 29.1101C23.9036 29.2532 24.0924 29.2756 25.2553 29.3689C26.4487 29.4645 26.7152 29.3723 26.772 28.8433C26.7894 28.6821 27.8448 28.5795 28.3561 28.689C28.7687 28.7773 28.9161 28.819 29.3384 28.9674C30.0689 29.2235 29.9981 29.8451 29.9981 23.1515C29.9981 16.7899 30.0237 17.164 29.589 17.1536C29.0228 17.1401 28.79 16.948 29.1485 16.7903C29.4907 16.6395 29.5484 16.3908 29.5484 15.0623C29.5484 13.6298 29.4838 13.3163 29.0213 12.5111C28.6399 11.847 28.6318 11.6257 28.9745 11.2732C29.1427 11.0997 29.1705 11.0315 29.1334 10.8818C29.0247 10.4476 29.0464 10.389 29.3798 10.2186C29.9409 9.93089 29.8844 10.8039 29.8431 3.06376L29.8334 1.27525L29.6102 1.07858C29.1879 0.706071 28.8948 0.61815 27.9048 0.569176C27.4086 0.544497 26.8575 0.505549 26.6804 0.482412C26.3404 0.438451 26.2004 0.515961 25.9409 0.89117C25.8106 1.07974 25.7642 1.0647 25.6335 0.792836C25.3953 0.298085 25.5055 0.313895 21.1911 0.154248L20.0205 0.111059L19.8642 0.267235C19.7741 0.357085 19.6894 0.537555 19.6643 0.692575C19.6063 1.05544 19.4558 1.13758 18.7493 1.19118L18.1665 1.23553L17.9836 0.996444C17.7701 0.71764 17.4812 0.579974 17.0945 0.573804C16.6474 0.566477 16.5762 0.517889 16.6907 0.297314C16.7433 0.196281 16.7862 0.0879216 16.7862 0.0566864C16.7862 0.0246798 15.8008 0 14.5393 0H12.292L11.8593 0.318523ZM6.1894 5.26604C6.39901 5.40525 6.81011 5.69446 7.10286 5.90887C7.396 6.12289 7.65202 6.29834 7.67213 6.29834C7.69224 6.29834 8.02406 6.54475 8.40885 6.84592C8.79404 7.14748 9.52419 7.643 10.0312 7.94726C11.1717 8.63251 13.0083 9.82831 13.0373 9.90467C13.0489 9.93629 13.0883 9.96174 13.1247 9.96174C13.161 9.96174 13.2964 10.0439 13.4255 10.1441C13.5547 10.2444 14.11 10.6292 14.6592 10.9998C15.2088 11.37 16.0209 11.9195 16.4641 12.2203C17.3864 12.8466 19.1383 14.0277 21.0082 15.2845C21.7171 15.7607 22.5292 16.3164 22.8131 16.5192C23.0965 16.7221 23.6093 17.0213 23.9527 17.1844C24.2962 17.3475 24.708 17.5893 24.8678 17.722C25.0279 17.8546 25.3396 18.0933 25.5608 18.2526C25.782 18.4118 26.0918 18.664 26.2492 18.8137L26.5353 19.0855L26.4978 19.4565C26.4503 19.9235 26.3679 20.3488 26.1931 21.0279C26.1177 21.3217 26.0461 21.6106 26.0345 21.6692C26.0225 21.7278 25.8829 22.1905 25.7236 22.6973C25.5643 23.2043 25.4138 23.6914 25.3891 23.7797C25.285 24.1507 24.9517 24.4939 24.4888 24.7063C24.0672 24.8995 21.7495 25.0133 21.7495 24.8405C21.7495 24.7873 21.7785 24.7437 21.8137 24.7437C21.8493 24.7437 21.8783 24.7164 21.8783 24.6828C21.8783 24.6477 21.7573 24.6577 21.5941 24.7067L21.3102 24.7919L20.9656 24.4403C20.7765 24.2467 20.2591 23.7805 19.8159 23.4041C18.5192 22.3028 18.016 21.749 16.9154 20.2142C16.7205 19.9424 16.2127 19.3821 15.7873 18.9687C15.0046 18.2086 12.8822 16.0507 11.7587 14.8734C11.4219 14.5202 10.6233 13.683 9.98362 13.0124C9.34436 12.3418 8.3725 11.316 7.8245 10.733C7.2765 10.1499 6.43498 9.26762 5.95466 8.77287C5.47434 8.27773 4.74419 7.52577 4.33232 7.10159C3.54338 6.28947 3.08395 5.73611 3.1466 5.67364C3.1671 5.6532 3.62692 5.49818 4.16796 5.32889C5.43914 4.93209 5.67621 4.92438 6.1894 5.26604ZM22.6777 5.23287C23.0056 5.33121 23.9415 5.92391 24.1894 6.18998C24.4721 6.49347 24.3704 7.71203 23.8425 10.3593C23.7733 10.7068 23.6059 10.7982 23.2709 10.6713C23.1108 10.6107 21.5028 9.48858 21.2611 9.26878C21.1926 9.20669 21.0604 9.09872 20.9672 9.02892C19.7455 8.11307 17.6892 6.45683 17.7074 6.40285C17.7446 6.29217 18.2751 6.11247 19.5579 5.77698C20.2138 5.60538 20.997 5.39483 21.2982 5.30923C21.9421 5.12567 22.262 5.10793 22.6777 5.23287ZM6.61635 18.9398C7.19374 19.4943 8.15903 20.4298 8.76155 21.0183C9.36447 21.6071 9.97705 22.1732 10.1236 22.2765C10.6546 22.6514 11.6365 23.6069 11.6168 23.7296C11.5986 23.8414 10.8781 24.1337 9.8123 24.4611C9.64562 24.5124 9.42054 24.6284 9.31264 24.7191C9.20475 24.8093 9.03652 24.8949 8.93906 24.9088C6.12636 25.3075 6.19946 25.3179 5.09998 24.3566C4.77435 24.0716 4.32884 23.7168 4.11033 23.5684C3.58283 23.209 3.30129 22.6298 3.57316 22.4624C3.60836 22.4404 3.63736 22.3787 3.63736 22.3251C3.63736 22.2715 3.73636 21.9912 3.85702 21.7023C3.97768 21.4131 4.21398 20.8443 4.38221 20.4379C4.55043 20.0311 4.76739 19.5251 4.86446 19.313C4.96114 19.101 5.13827 18.7034 5.25777 18.4296C5.37688 18.1554 5.49522 17.9314 5.52074 17.9314C5.54627 17.9314 6.03935 18.3849 6.61635 18.9398Z" fill="#BC2C1C"/>
</g>
</svg>
