<svg width="244" height="25" viewBox="0 0 244 25" fill="none" xmlns="http://www.w3.org/2000/svg">
<path d="M14.8994 17.5505C14.1317 16.8426 13.3265 16.1009 12.5025 15.3398C11.6794 16.0984 10.8677 16.846 10.0739 17.5758C9.11054 16.5768 8.16353 15.5947 7.18066 14.5762C7.82124 13.8303 8.49034 13.0507 9.16922 12.2592C8.02009 11.1977 6.88889 10.1532 5.75769 9.10856C4.43089 7.8834 3.10573 6.6557 1.77567 5.43392C1.45049 5.13522 1.25571 4.7783 1.21659 4.32519C1.09923 2.96418 0.975352 1.60402 0.855549 0.243851C0.849844 0.17888 0.854734 0.112222 0.854734 0C1.29075 0.033751 1.70965 0.0624394 2.12856 0.100409C3.08372 0.187318 4.03888 0.280977 4.99486 0.369574C5.47978 0.414294 5.84652 0.658989 6.166 1.03194C8.20754 3.41476 10.2572 5.78999 12.3037 8.16775C12.3607 8.23441 12.4129 8.30444 12.4911 8.40232C12.9222 7.90365 13.3281 7.43704 13.7323 6.9679C15.4454 4.97828 17.161 2.99034 18.8692 0.995655C19.1658 0.649707 19.5122 0.419357 19.9572 0.377168C21.2489 0.253976 22.5415 0.137535 23.8341 0.0210944C23.9286 0.0126566 24.0248 0.0202506 24.1593 0.0202506C24.1128 0.550986 24.068 1.064 24.0232 1.57702C23.9433 2.48745 23.8593 3.39789 23.7852 4.30916C23.7477 4.77493 23.5464 5.13944 23.2131 5.44742C20.8423 7.6328 18.4747 9.82239 16.1056 12.0103C16.0241 12.0854 15.9442 12.1613 15.8334 12.2643C16.5008 13.0414 17.1634 13.8126 17.7991 14.5526C16.8342 15.5508 15.8814 16.5355 14.8994 17.5505Z" fill="#EAECEC"/>
<path d="M1.51327 20.8134C2.68033 19.606 3.78219 18.4652 4.91013 17.2974C4.4407 16.8131 3.96311 16.3212 3.48635 15.8275C2.88489 15.2048 2.88407 14.6336 3.4839 14.01C3.56051 13.9299 3.6363 13.848 3.71617 13.7713C4.16116 13.3485 4.7618 13.33 5.18804 13.7679C7.08451 15.7187 8.97446 17.6754 10.8579 19.6389C11.2654 20.0633 11.2515 20.697 10.8652 21.14C10.7772 21.2404 10.6827 21.334 10.5898 21.4294C10.0331 22.0006 9.45531 22.0057 8.90682 21.4378C8.42109 20.9358 7.94106 20.4278 7.47407 19.9376C6.3445 21.1121 5.23938 22.2622 4.07151 23.4772C4.22472 23.6114 4.42929 23.7641 4.60369 23.9489C4.85797 24.218 4.8433 24.5201 4.59147 24.7859C4.34208 25.0483 4.03157 25.0779 3.78137 24.8214C2.57193 23.581 1.3682 22.3356 0.170984 21.0834C-0.0816619 20.8193 -0.0458025 20.5156 0.222328 20.2489C0.466824 20.0059 0.762664 19.9874 1.00716 20.2278C1.18727 20.4059 1.3413 20.6126 1.51327 20.8134Z" fill="#EAECEC"/>
<path d="M20.1259 17.2822C21.2457 18.4416 22.3525 19.5882 23.4951 20.7712C23.6361 20.6151 23.7909 20.427 23.9621 20.2565C24.2335 19.9865 24.5383 19.9949 24.7974 20.2658C25.0542 20.5341 25.0745 20.8303 24.8146 21.1028C23.6247 22.3465 22.4291 23.5844 21.2278 24.8163C20.9662 25.0846 20.65 25.0508 20.3949 24.7682C20.1528 24.499 20.1577 24.2138 20.4145 23.9303C20.5709 23.7573 20.7315 23.5894 20.8896 23.4181C20.8961 23.4105 20.8969 23.397 20.8912 23.4148C19.7747 22.2579 18.6671 21.1104 17.54 19.9426C17.0812 20.4185 16.6052 20.9147 16.1276 21.4074C15.5425 22.0107 14.9777 22.0116 14.3974 21.4125C14.32 21.3323 14.2417 21.2547 14.166 21.1729C13.7422 20.7113 13.7259 20.0717 14.1562 19.6237C16.0339 17.6695 17.9157 15.7212 19.8032 13.7772C20.2294 13.3384 20.826 13.3435 21.2751 13.7628C21.4047 13.8835 21.5277 14.0126 21.6459 14.1459C22.0632 14.6167 22.0656 15.2377 21.6369 15.6993C21.2058 16.1634 20.7592 16.6114 20.3207 17.0679C20.2441 17.1464 20.1732 17.2299 20.1259 17.2822Z" fill="#EAECEC"/>
<path d="M48.08 18.76C45.9467 18.76 44.1933 18.06 42.82 16.66C41.4467 15.2733 40.76 13.5533 40.76 11.5C40.76 9.44667 41.4467 7.72667 42.82 6.34C44.1933 4.94 45.9467 4.24 48.08 4.24C49.3467 4.24 50.52 4.54667 51.6 5.16C52.68 5.77333 53.52 6.6 54.12 7.64L52.5 8.58C52.1 7.80667 51.5 7.19333 50.7 6.74C49.9133 6.27333 49.04 6.04 48.08 6.04C46.4533 6.04 45.1333 6.56 44.12 7.6C43.1067 8.62667 42.6 9.92667 42.6 11.5C42.6 13.06 43.1067 14.3533 44.12 15.38C45.1333 16.42 46.4533 16.94 48.08 16.94C49.04 16.94 49.9133 16.7133 50.7 16.26C51.5 15.7933 52.1 15.18 52.5 14.42L54.12 15.34C53.5333 16.38 52.7 17.2133 51.62 17.84C50.5533 18.4533 49.3733 18.76 48.08 18.76ZM54.9852 8.5H63.5452V10.18H60.1452V18.5H58.4052V10.18H54.9852V8.5ZM72.9594 10.22V8.5H74.6994V18.5H72.9594V16.78C72.106 18.1 70.846 18.76 69.1794 18.76C67.766 18.76 66.5727 18.2533 65.5994 17.24C64.6127 16.2133 64.1194 14.9667 64.1194 13.5C64.1194 12.0467 64.6127 10.8067 65.5994 9.78C66.586 8.75333 67.7794 8.24 69.1794 8.24C70.846 8.24 72.106 8.9 72.9594 10.22ZM69.3994 17.08C70.4127 17.08 71.2594 16.74 71.9394 16.06C72.6194 15.3533 72.9594 14.5 72.9594 13.5C72.9594 12.4867 72.6194 11.64 71.9394 10.96C71.2594 10.2667 70.4127 9.92 69.3994 9.92C68.3994 9.92 67.5594 10.2667 66.8794 10.96C66.1994 11.64 65.8594 12.4867 65.8594 13.5C65.8594 14.5 66.1994 15.3533 66.8794 16.06C67.5594 16.74 68.3994 17.08 69.3994 17.08ZM76.2156 8.5H84.7756V10.18H81.3756V18.5H79.6356V10.18H76.2156V8.5ZM88.0205 15.52L93.5605 8.5H94.9605V18.5H93.2405V11.48L87.7005 18.5H86.3005V8.5H88.0205V15.52ZM102.309 18.76C100.802 18.76 99.5491 18.26 98.5491 17.26C97.5491 16.2467 97.0491 14.9933 97.0491 13.5C97.0491 12.0067 97.5491 10.76 98.5491 9.76C99.5491 8.74667 100.802 8.24 102.309 8.24C103.296 8.24 104.182 8.48 104.969 8.96C105.756 9.42667 106.342 10.06 106.729 10.86L105.269 11.7C105.016 11.1667 104.622 10.74 104.089 10.42C103.569 10.1 102.976 9.94 102.309 9.94C101.309 9.94 100.469 10.28 99.7891 10.96C99.1224 11.6533 98.7891 12.5 98.7891 13.5C98.7891 14.4867 99.1224 15.3267 99.7891 16.02C100.469 16.7 101.309 17.04 102.309 17.04C102.976 17.04 103.576 16.8867 104.109 16.58C104.642 16.26 105.049 15.8333 105.329 15.3L106.809 16.16C106.369 16.96 105.749 17.5933 104.949 18.06C104.149 18.5267 103.269 18.76 102.309 18.76ZM107.251 8.5H115.811V10.18H112.411V18.5H110.671V10.18H107.251V8.5ZM119.056 15.52L124.596 8.5H125.996V18.5H124.276V11.48L118.736 18.5H117.336V8.5H119.056V15.52ZM132.164 13.34L137.104 18.5H134.944L130.384 13.76V18.5H128.644V8.5H130.384V12.92L134.704 8.5H136.944L132.164 13.34ZM146.084 10.22V8.5H147.824V18.5H146.084V16.78C145.231 18.1 143.971 18.76 142.304 18.76C140.891 18.76 139.698 18.2533 138.724 17.24C137.738 16.2133 137.244 14.9667 137.244 13.5C137.244 12.0467 137.738 10.8067 138.724 9.78C139.711 8.75333 140.904 8.24 142.304 8.24C143.971 8.24 145.231 8.9 146.084 10.22ZM142.524 17.08C143.538 17.08 144.384 16.74 145.064 16.06C145.744 15.3533 146.084 14.5 146.084 13.5C146.084 12.4867 145.744 11.64 145.064 10.96C144.384 10.2667 143.538 9.92 142.524 9.92C141.524 9.92 140.684 10.2667 140.004 10.96C139.324 11.64 138.984 12.4867 138.984 13.5C138.984 14.5 139.324 15.3533 140.004 16.06C140.684 16.74 141.524 17.08 142.524 17.08ZM154.341 8.5H162.901V10.18H159.501V18.5H157.761V10.18H154.341V8.5ZM168.584 16.34L171.464 8.5H173.324L169.244 19.12C168.817 20.2533 168.217 21.1133 167.444 21.7C166.671 22.3 165.791 22.5667 164.804 22.5V20.88C166.017 20.9733 166.917 20.3067 167.504 18.88L167.664 18.52L163.324 8.5H165.164L168.584 16.34ZM180.297 8.24C181.697 8.24 182.89 8.75333 183.877 9.78C184.864 10.8067 185.357 12.0467 185.357 13.5C185.357 14.9667 184.864 16.2133 183.877 17.24C182.904 18.2533 181.71 18.76 180.297 18.76C178.644 18.76 177.384 18.1 176.517 16.78V22.5H174.777V8.5H176.517V10.22C177.384 8.9 178.644 8.24 180.297 8.24ZM180.077 17.08C181.077 17.08 181.917 16.74 182.597 16.06C183.277 15.3533 183.617 14.5 183.617 13.5C183.617 12.4867 183.277 11.64 182.597 10.96C181.917 10.2667 181.077 9.92 180.077 9.92C179.064 9.92 178.217 10.2667 177.537 10.96C176.857 11.64 176.517 12.4867 176.517 13.5C176.517 14.5 176.857 15.3533 177.537 16.06C178.217 16.74 179.064 17.08 180.077 17.08ZM194.353 12.66V8.5H196.093V18.5H194.353V14.32H189.173V18.5H187.433V8.5H189.173V12.66H194.353ZM200.462 15.52L206.002 8.5H207.402V18.5H205.682V11.48L200.142 18.5H198.742V8.5H200.462V15.52ZM215.57 8.24C216.97 8.24 218.164 8.75333 219.15 9.78C220.137 10.8067 220.63 12.0467 220.63 13.5C220.63 14.9667 220.137 16.2133 219.15 17.24C218.177 18.2533 216.984 18.76 215.57 18.76C213.917 18.76 212.657 18.1 211.79 16.78V22.5H210.05V8.5H211.79V10.22C212.657 8.9 213.917 8.24 215.57 8.24ZM215.35 17.08C216.35 17.08 217.19 16.74 217.87 16.06C218.55 15.3533 218.89 14.5 218.89 13.5C218.89 12.4867 218.55 11.64 217.87 10.96C217.19 10.2667 216.35 9.92 215.35 9.92C214.337 9.92 213.49 10.2667 212.81 10.96C212.13 11.64 211.79 12.4867 211.79 13.5C211.79 14.5 212.13 15.3533 212.81 16.06C213.49 16.74 214.337 17.08 215.35 17.08ZM231.147 17.24C230.133 18.2533 228.887 18.76 227.407 18.76C225.927 18.76 224.68 18.2533 223.667 17.24C222.653 16.2267 222.147 14.98 222.147 13.5C222.147 12.02 222.653 10.7733 223.667 9.76C224.68 8.74667 225.927 8.24 227.407 8.24C228.887 8.24 230.133 8.74667 231.147 9.76C232.173 10.7867 232.687 12.0333 232.687 13.5C232.687 14.9667 232.173 16.2133 231.147 17.24ZM227.407 17.06C228.407 17.06 229.247 16.72 229.927 16.04C230.607 15.36 230.947 14.5133 230.947 13.5C230.947 12.4867 230.607 11.64 229.927 10.96C229.247 10.28 228.407 9.94 227.407 9.94C226.42 9.94 225.587 10.28 224.907 10.96C224.227 11.64 223.887 12.4867 223.887 13.5C223.887 14.5133 224.227 15.36 224.907 16.04C225.587 16.72 226.42 17.06 227.407 17.06ZM241.398 13.36C242.425 13.7867 242.938 14.56 242.938 15.68C242.938 16.5333 242.658 17.22 242.098 17.74C241.538 18.2467 240.751 18.5 239.738 18.5H234.738V8.5H239.338C240.325 8.5 241.091 8.74667 241.638 9.24C242.198 9.73333 242.478 10.3933 242.478 11.22C242.478 12.18 242.118 12.8933 241.398 13.36ZM239.258 10.06H236.438V12.68H239.258C240.271 12.68 240.778 12.2333 240.778 11.34C240.778 10.4867 240.271 10.06 239.258 10.06ZM236.438 16.92H239.638C240.145 16.92 240.531 16.8 240.798 16.56C241.078 16.32 241.218 15.98 241.218 15.54C241.218 15.1267 241.078 14.8067 240.798 14.58C240.531 14.34 240.145 14.22 239.638 14.22H236.438V16.92Z" fill="#EAECEC"/>
</svg>
