<svg width="314" height="30" viewBox="0 0 314 30" fill="none" xmlns="http://www.w3.org/2000/svg">
<rect x="9" y="12" width="7" height="18" rx="2" fill="#EAECEC"/>
<rect y="20" width="7" height="10" rx="2" fill="#EAECEC"/>
<rect x="18" y="17" width="7" height="13" rx="2" fill="#EAECEC"/>
<path d="M12.5 0L13.9548 2.49768L16.7798 3.10942L14.8539 5.26482L15.145 8.14058L12.5 6.975L9.85497 8.14058L10.1461 5.26482L8.22025 3.10942L11.0452 2.49768L12.5 0Z" fill="#EAECEC"/>
<path d="M40.76 18C40.76 15.9733 41.46 14.26 42.86 12.86C44.26 11.4467 45.9733 10.74 48 10.74C50.0267 10.74 51.74 11.4467 53.14 12.86C54.5533 14.26 55.26 15.9733 55.26 18C55.26 20.0133 54.5533 21.7267 53.14 23.14C51.74 24.5533 50.0267 25.26 48 25.26C45.9733 25.26 44.26 24.5533 42.86 23.14C41.46 21.7133 40.76 20 40.76 18ZM53.4 18C53.4 16.4533 52.88 15.16 51.84 14.12C50.8267 13.0667 49.5467 12.54 48 12.54C46.4667 12.54 45.18 13.0667 44.14 14.12C43.1133 15.1733 42.6 16.4667 42.6 18C42.6 19.52 43.1133 20.8133 44.14 21.88C45.18 22.92 46.4667 23.44 48 23.44C49.5467 23.44 50.8267 22.92 51.84 21.88C52.88 20.8133 53.4 19.52 53.4 18ZM61.8561 25.26C60.3761 25.26 59.1561 24.7733 58.1961 23.8C57.2361 22.8133 56.7561 21.56 56.7561 20.04C56.7561 18.32 57.0028 17.0067 57.4961 16.1C58.0028 15.18 59.0294 14.3467 60.5761 13.6C60.6561 13.56 60.7494 13.5133 60.8561 13.46C60.9761 13.4067 61.1161 13.3467 61.2761 13.28C61.4494 13.2 61.5961 13.1333 61.7161 13.08L62.7961 12.6C63.8628 12.0667 64.4294 11.4267 64.4961 10.68L65.8961 11.48C65.8028 11.9467 65.6494 12.32 65.4361 12.6C65.4228 12.6267 65.3828 12.6867 65.3161 12.78C65.2494 12.86 65.2028 12.92 65.1761 12.96C65.1494 12.9867 65.1028 13.0333 65.0361 13.1C64.9828 13.1533 64.9228 13.2067 64.8561 13.26C64.8028 13.3133 64.7294 13.3667 64.6361 13.42C64.1428 13.7267 63.7894 13.9267 63.5761 14.02C63.4961 14.06 63.4094 14.1 63.3161 14.14C63.2361 14.18 63.1694 14.2133 63.1161 14.24C63.0628 14.2667 63.0228 14.2867 62.9961 14.3L62.3361 14.58L61.6961 14.84C60.8028 15.2267 60.1428 15.62 59.7161 16.02C59.2894 16.42 58.9828 16.9267 58.7961 17.54C59.2094 17.0333 59.7294 16.6467 60.3561 16.38C60.9961 16.1133 61.6494 15.98 62.3161 15.98C63.5828 15.98 64.6428 16.4067 65.4961 17.26C66.3761 18.1267 66.8161 19.2267 66.8161 20.56C66.8161 21.92 66.3494 23.0467 65.4161 23.94C64.4694 24.82 63.2828 25.26 61.8561 25.26ZM65.0761 20.56C65.0761 19.6667 64.7828 18.94 64.1961 18.38C63.6228 17.8067 62.8628 17.52 61.9161 17.52C61.0761 17.52 60.3028 17.7933 59.5961 18.34C58.9161 18.8867 58.5761 19.5933 58.5761 20.46C58.5761 21.3667 58.8894 22.1133 59.5161 22.7C60.1428 23.2867 60.9228 23.58 61.8561 23.58C62.8028 23.58 63.5694 23.2933 64.1561 22.72C64.7694 22.1467 65.0761 21.4267 65.0761 20.56ZM82.2638 15V23.34H83.6438V27.68H81.9238V25H68.6637V15H70.4038V23.34H74.6038V15H76.3438V23.34H80.5238V15H82.2638ZM87.2392 22.02L92.7792 15H94.1792V25H92.4592V17.98L86.9192 25H85.5192V15H87.2392V22.02ZM103.868 13.5H98.4678V11.98H103.868V13.5ZM98.5478 22.02L104.088 15H105.488V25H103.768V17.98L98.2278 25H96.8278V15H98.5478V22.02ZM121.276 15H123.136V25H121.436V17.74L118.256 22.86H118.036L114.856 17.74V25H113.136V15H114.996L118.136 20.06L121.276 15ZM134.073 16.72V15H135.813V25H134.073V23.28C133.219 24.6 131.959 25.26 130.293 25.26C128.879 25.26 127.686 24.7533 126.713 23.74C125.726 22.7133 125.233 21.4667 125.233 20C125.233 18.5467 125.726 17.3067 126.713 16.28C127.699 15.2533 128.893 14.74 130.293 14.74C131.959 14.74 133.219 15.4 134.073 16.72ZM130.513 23.58C131.526 23.58 132.373 23.24 133.053 22.56C133.733 21.8533 134.073 21 134.073 20C134.073 18.9867 133.733 18.14 133.053 17.46C132.373 16.7667 131.526 16.42 130.513 16.42C129.513 16.42 128.673 16.7667 127.993 17.46C127.313 18.14 126.973 18.9867 126.973 20C126.973 21 127.313 21.8533 127.993 22.56C128.673 23.24 129.513 23.58 130.513 23.58ZM137.329 15H145.889V16.68H142.489V25H140.749V16.68H137.329V15ZM153.792 19.78V15H155.532V25H153.792V21.4C152.979 21.7467 152.079 21.92 151.092 21.92C149.799 21.92 148.805 21.6133 148.112 21C147.419 20.3867 147.072 19.4933 147.072 18.32V15H148.812V18.22C148.812 18.9533 149.005 19.4867 149.392 19.82C149.792 20.14 150.399 20.3 151.212 20.3C152.132 20.3 152.992 20.1267 153.792 19.78ZM166.315 15H168.175V25H166.475V17.74L163.295 22.86H163.075L159.895 17.74V25H158.175V15H160.035L163.175 20.06L166.315 15ZM180.432 20.8H172.052C172.225 21.68 172.632 22.3733 173.272 22.88C173.912 23.3733 174.712 23.62 175.672 23.62C176.992 23.62 177.952 23.1333 178.552 22.16L180.032 23C179.045 24.5067 177.578 25.26 175.632 25.26C174.058 25.26 172.765 24.7667 171.752 23.78C170.765 22.7667 170.272 21.5067 170.272 20C170.272 18.48 170.758 17.2267 171.732 16.24C172.705 15.24 173.965 14.74 175.512 14.74C176.978 14.74 178.172 15.26 179.092 16.3C180.025 17.3133 180.492 18.5533 180.492 20.02C180.492 20.2733 180.472 20.5333 180.432 20.8ZM175.512 16.38C174.592 16.38 173.818 16.64 173.192 17.16C172.578 17.68 172.198 18.3867 172.052 19.28H178.732C178.585 18.36 178.218 17.6467 177.632 17.14C177.045 16.6333 176.338 16.38 175.512 16.38ZM189.532 13.5H184.132V11.98H189.532V13.5ZM184.212 22.02L189.752 15H191.152V25H189.432V17.98L183.892 25H182.492V15H184.212V22.02ZM197.32 19.84L202.26 25H200.1L195.54 20.26V25H193.8V15H195.54V19.42L199.86 15H202.1L197.32 19.84ZM205.599 22.02L211.139 15H212.539V25H210.819V17.98L205.279 25H203.879V15H205.599V22.02ZM222.107 19.16V15H223.847V25H222.107V20.82H216.927V25H215.187V15H216.927V19.16H222.107ZM226.496 15H233.056V16.68H228.236V25H226.496V15ZM245.102 14.74C246.502 14.74 247.695 15.2533 248.682 16.28C249.668 17.3067 250.162 18.5467 250.162 20C250.162 21.4667 249.668 22.7133 248.682 23.74C247.708 24.7533 246.515 25.26 245.102 25.26C243.448 25.26 242.188 24.6 241.322 23.28V29H239.582V15H241.322V16.72C242.188 15.4 243.448 14.74 245.102 14.74ZM244.882 23.58C245.882 23.58 246.722 23.24 247.402 22.56C248.082 21.8533 248.422 21 248.422 20C248.422 18.9867 248.082 18.14 247.402 17.46C246.722 16.7667 245.882 16.42 244.882 16.42C243.868 16.42 243.022 16.7667 242.342 17.46C241.662 18.14 241.322 18.9867 241.322 20C241.322 21 241.662 21.8533 242.342 22.56C243.022 23.24 243.868 23.58 244.882 23.58ZM261.838 20.8H253.458C253.631 21.68 254.038 22.3733 254.678 22.88C255.318 23.3733 256.118 23.62 257.078 23.62C258.398 23.62 259.358 23.1333 259.958 22.16L261.438 23C260.451 24.5067 258.985 25.26 257.038 25.26C255.465 25.26 254.171 24.7667 253.158 23.78C252.171 22.7667 251.678 21.5067 251.678 20C251.678 18.48 252.165 17.2267 253.138 16.24C254.111 15.24 255.371 14.74 256.918 14.74C258.385 14.74 259.578 15.26 260.498 16.3C261.431 17.3133 261.898 18.5533 261.898 20.02C261.898 20.2733 261.878 20.5333 261.838 20.8ZM256.918 16.38C255.998 16.38 255.225 16.64 254.598 17.16C253.985 17.68 253.605 18.3867 253.458 19.28H260.138C259.991 18.36 259.625 17.6467 259.038 17.14C258.451 16.6333 257.745 16.38 256.918 16.38ZM270.938 13.5H265.538V11.98H270.938V13.5ZM265.618 22.02L271.158 15H272.558V25H270.838V17.98L265.298 25H263.898V15H265.618V22.02ZM274.087 15H282.647V16.68H279.247V25H277.507V16.68H274.087V15ZM285.892 22.02L291.432 15H292.832V25H291.112V17.98L285.572 25H284.172V15H285.892V22.02ZM302.4 19.16V15H304.14V25H302.4V20.82H297.22V25H295.48V15H297.22V19.16H302.4ZM306.789 15H313.349V16.68H308.529V25H306.789V15Z" fill="#EAECEC"/>
</svg>
