<svg width="12" height="10" viewBox="0 0 12 10" fill="none" xmlns="http://www.w3.org/2000/svg">
<g id="Frame 67">
<g id="Group">
<path id="Vector" d="M12 2.38557C12 1.84343 11.5917 1.40388 11.0885 1.40388C10.585 1.40388 10.1766 1.84343 10.1766 2.38557C10.1766 2.65072 10.2744 2.89103 10.433 3.06739C9.813 4.45074 8.62793 4.9337 7.70948 4.49653C6.89137 4.10668 6.58962 2.99242 6.48743 2.12911C6.82104 1.94012 7.04848 1.56368 7.04848 1.12926C7.04845 0.505453 6.57935 0 6 0C5.42102 0 4.95155 0.505453 4.95155 1.12926C4.95155 1.56368 5.17896 1.9401 5.51259 2.12911C5.41043 2.99244 5.10867 4.10671 4.29054 4.49653C3.37207 4.93372 2.18702 4.45074 1.56703 3.06739C1.72561 2.89103 1.82339 2.65072 1.82339 2.38557C1.82339 1.84343 1.41506 1.40388 0.911883 1.40388C0.408328 1.40388 0 1.84343 0 2.38557C0 2.88509 0.34643 3.29663 0.793945 3.35898L1.8446 7.50235H10.1554L11.2061 3.35898C11.6539 3.29663 12 2.88509 12 2.38557Z" fill="#D98507"/>
<path id="Vector_2" d="M10.6644 9.26925C10.6644 9.67288 10.3609 10 9.98585 10H2.01417C1.63952 9.99998 1.33594 9.67288 1.33594 9.26925V9.20849C1.33594 8.80445 1.63952 8.47736 2.01417 8.47736H9.98585C10.3609 8.47736 10.6644 8.80445 10.6644 9.20849V9.26925Z" fill="#D98507"/>
</g>
</g>
</svg>
