<svg width="279" height="25" viewBox="0 0 279 25" fill="none" xmlns="http://www.w3.org/2000/svg">
<path d="M16.8855 16.2857H8.16886C6.009 16.2951 3.94031 17.1447 2.41304 18.6497C0.88577 20.1547 0.0235377 22.1931 0.0140018 24.3214C-0.00466726 24.5472 -0.00466726 24.7742 0.0140018 25H24.986C25.0047 24.7742 25.0047 24.5472 24.986 24.3214C24.9813 22.2009 24.1281 20.1678 22.6115 18.6633C21.0949 17.1589 19.0374 16.3045 16.8855 16.2857ZM12.6993 14.0714C14.1115 14.0714 15.492 13.6588 16.6661 12.8857C17.8403 12.1126 18.7555 11.0138 19.2959 9.72817C19.8363 8.44256 19.9777 7.02791 19.7022 5.66312C19.4267 4.29832 18.7467 3.04468 17.7481 2.06072C16.7496 1.07675 15.4773 0.406667 14.0923 0.135192C12.7073 -0.136282 11.2716 0.00304841 9.96697 0.535565C8.6623 1.06808 7.54718 1.96987 6.76262 3.12688C5.97806 4.2839 5.55931 5.64418 5.55931 7.03572C5.55931 8.9017 6.31156 10.6913 7.65057 12.0107C8.98959 13.3302 10.8057 14.0714 12.6993 14.0714Z" fill="#EAECEC"/>
<path d="M40.28 18.5V16.82C41.2267 16.9533 41.92 16.6867 42.36 16.02C42.8133 15.3533 43.04 14.16 43.04 12.44V4.5H52.28V18.5H50.42V6.26H44.9V12.44C44.9 13.68 44.78 14.7267 44.54 15.58C44.3133 16.4333 43.98 17.0733 43.54 17.5C43.1133 17.9267 42.6333 18.22 42.1 18.38C41.58 18.5267 40.9733 18.5667 40.28 18.5ZM59.2091 16.34L62.0891 8.5H63.9491L59.8691 19.12C59.4424 20.2533 58.8424 21.1133 58.0691 21.7C57.2957 22.3 56.4157 22.5667 55.4291 22.5V20.88C56.6424 20.9733 57.5424 20.3067 58.1291 18.88L58.2891 18.52L53.9491 8.5H55.7891L59.2091 16.34ZM71.702 13.28V8.5H73.442V18.5H71.702V14.9C70.8887 15.2467 69.9887 15.42 69.002 15.42C67.7087 15.42 66.7154 15.1133 66.022 14.5C65.3287 13.8867 64.982 12.9933 64.982 11.82V8.5H66.722V11.72C66.722 12.4533 66.9154 12.9867 67.302 13.32C67.702 13.64 68.3087 13.8 69.122 13.8C70.042 13.8 70.902 13.6267 71.702 13.28ZM88.0456 16.84V8.5H89.7856V18.5H76.0856V8.5H77.8256V16.84H82.0656V8.5H83.8056V16.84H88.0456ZM94.1728 15.52L99.7128 8.5H101.113V18.5H99.3928V11.48L93.8528 18.5H92.4528V8.5H94.1728V15.52ZM113.361 14.3H104.981C105.155 15.18 105.561 15.8733 106.201 16.38C106.841 16.8733 107.641 17.12 108.601 17.12C109.921 17.12 110.881 16.6333 111.481 15.66L112.961 16.5C111.975 18.0067 110.508 18.76 108.561 18.76C106.988 18.76 105.695 18.2667 104.681 17.28C103.695 16.2667 103.201 15.0067 103.201 13.5C103.201 11.98 103.688 10.7267 104.661 9.74C105.635 8.74 106.895 8.24 108.441 8.24C109.908 8.24 111.101 8.76 112.021 9.8C112.955 10.8133 113.421 12.0533 113.421 13.52C113.421 13.7733 113.401 14.0333 113.361 14.3ZM108.441 9.88C107.521 9.88 106.748 10.14 106.121 10.66C105.508 11.18 105.128 11.8867 104.981 12.78H111.661C111.515 11.86 111.148 11.1467 110.561 10.64C109.975 10.1333 109.268 9.88 108.441 9.88ZM122.142 15.52L127.682 8.5H129.082V18.5H127.362V11.48L121.822 18.5H120.422V8.5H122.142V15.52ZM131.73 8.5H138.29V10.18H133.47V18.5H131.73V8.5ZM145.336 8.24C146.736 8.24 147.929 8.75333 148.916 9.78C149.903 10.8067 150.396 12.0467 150.396 13.5C150.396 14.9667 149.903 16.2133 148.916 17.24C147.943 18.2533 146.749 18.76 145.336 18.76C143.683 18.76 142.423 18.1 141.556 16.78V22.5H139.816V8.5H141.556V10.22C142.423 8.9 143.683 8.24 145.336 8.24ZM145.116 17.08C146.116 17.08 146.956 16.74 147.636 16.06C148.316 15.3533 148.656 14.5 148.656 13.5C148.656 12.4867 148.316 11.64 147.636 10.96C146.956 10.2667 146.116 9.92 145.116 9.92C144.103 9.92 143.256 10.2667 142.576 10.96C141.896 11.64 141.556 12.4867 141.556 13.5C141.556 14.5 141.896 15.3533 142.576 16.06C143.256 16.74 144.103 17.08 145.116 17.08ZM160.912 17.24C159.899 18.2533 158.652 18.76 157.172 18.76C155.692 18.76 154.446 18.2533 153.432 17.24C152.419 16.2267 151.912 14.98 151.912 13.5C151.912 12.02 152.419 10.7733 153.432 9.76C154.446 8.74667 155.692 8.24 157.172 8.24C158.652 8.24 159.899 8.74667 160.912 9.76C161.939 10.7867 162.452 12.0333 162.452 13.5C162.452 14.9667 161.939 16.2133 160.912 17.24ZM157.172 17.06C158.172 17.06 159.012 16.72 159.692 16.04C160.372 15.36 160.712 14.5133 160.712 13.5C160.712 12.4867 160.372 11.64 159.692 10.96C159.012 10.28 158.172 9.94 157.172 9.94C156.186 9.94 155.352 10.28 154.672 10.96C153.992 11.64 153.652 12.4867 153.652 13.5C153.652 14.5133 153.992 15.36 154.672 16.04C155.352 16.72 156.186 17.06 157.172 17.06ZM168.024 13.34L172.964 18.5H170.804L166.244 13.76V18.5H164.504V8.5H166.244V12.92L170.564 8.5H172.804L168.024 13.34ZM176.302 15.52L181.842 8.5H183.242V18.5H181.522V11.48L175.982 18.5H174.582V8.5H176.302V15.52ZM189.77 8.5H198.33V10.18H194.93V18.5H193.19V10.18H189.77V8.5ZM204.014 16.34L206.894 8.5H208.754L204.674 19.12C204.247 20.2533 203.647 21.1133 202.874 21.7C202.1 22.3 201.22 22.5667 200.234 22.5V20.88C201.447 20.9733 202.347 20.3067 202.934 18.88L203.094 18.52L198.754 8.5H200.594L204.014 16.34ZM215.727 8.24C217.127 8.24 218.32 8.75333 219.307 9.78C220.293 10.8067 220.787 12.0467 220.787 13.5C220.787 14.9667 220.293 16.2133 219.307 17.24C218.333 18.2533 217.14 18.76 215.727 18.76C214.073 18.76 212.813 18.1 211.947 16.78V22.5H210.207V8.5H211.947V10.22C212.813 8.9 214.073 8.24 215.727 8.24ZM215.507 17.08C216.507 17.08 217.347 16.74 218.027 16.06C218.707 15.3533 219.047 14.5 219.047 13.5C219.047 12.4867 218.707 11.64 218.027 10.96C217.347 10.2667 216.507 9.92 215.507 9.92C214.493 9.92 213.647 10.2667 212.967 10.96C212.287 11.64 211.947 12.4867 211.947 13.5C211.947 14.5 212.287 15.3533 212.967 16.06C213.647 16.74 214.493 17.08 215.507 17.08ZM229.783 12.66V8.5H231.523V18.5H229.783V14.32H224.603V18.5H222.863V8.5H224.603V12.66H229.783ZM235.892 15.52L241.432 8.5H242.832V18.5H241.112V11.48L235.572 18.5H234.172V8.5H235.892V15.52ZM251 8.24C252.4 8.24 253.593 8.75333 254.58 9.78C255.567 10.8067 256.06 12.0467 256.06 13.5C256.06 14.9667 255.567 16.2133 254.58 17.24C253.607 18.2533 252.413 18.76 251 18.76C249.347 18.76 248.087 18.1 247.22 16.78V22.5H245.48V8.5H247.22V10.22C248.087 8.9 249.347 8.24 251 8.24ZM250.78 17.08C251.78 17.08 252.62 16.74 253.3 16.06C253.98 15.3533 254.32 14.5 254.32 13.5C254.32 12.4867 253.98 11.64 253.3 10.96C252.62 10.2667 251.78 9.92 250.78 9.92C249.767 9.92 248.92 10.2667 248.24 10.96C247.56 11.64 247.22 12.4867 247.22 13.5C247.22 14.5 247.56 15.3533 248.24 16.06C248.92 16.74 249.767 17.08 250.78 17.08ZM266.576 17.24C265.563 18.2533 264.316 18.76 262.836 18.76C261.356 18.76 260.11 18.2533 259.096 17.24C258.083 16.2267 257.576 14.98 257.576 13.5C257.576 12.02 258.083 10.7733 259.096 9.76C260.11 8.74667 261.356 8.24 262.836 8.24C264.316 8.24 265.563 8.74667 266.576 9.76C267.603 10.7867 268.116 12.0333 268.116 13.5C268.116 14.9667 267.603 16.2133 266.576 17.24ZM262.836 17.06C263.836 17.06 264.676 16.72 265.356 16.04C266.036 15.36 266.376 14.5133 266.376 13.5C266.376 12.4867 266.036 11.64 265.356 10.96C264.676 10.28 263.836 9.94 262.836 9.94C261.85 9.94 261.016 10.28 260.336 10.96C259.656 11.64 259.316 12.4867 259.316 13.5C259.316 14.5133 259.656 15.36 260.336 16.04C261.016 16.72 261.85 17.06 262.836 17.06ZM276.828 13.36C277.854 13.7867 278.368 14.56 278.368 15.68C278.368 16.5333 278.088 17.22 277.528 17.74C276.968 18.2467 276.181 18.5 275.168 18.5H270.168V8.5H274.768C275.754 8.5 276.521 8.74667 277.068 9.24C277.628 9.73333 277.908 10.3933 277.908 11.22C277.908 12.18 277.548 12.8933 276.828 13.36ZM274.688 10.06H271.868V12.68H274.688C275.701 12.68 276.208 12.2333 276.208 11.34C276.208 10.4867 275.701 10.06 274.688 10.06ZM271.868 16.92H275.068C275.574 16.92 275.961 16.8 276.228 16.56C276.508 16.32 276.648 15.98 276.648 15.54C276.648 15.1267 276.508 14.8067 276.228 14.58C275.961 14.34 275.574 14.22 275.068 14.22H271.868V16.92Z" fill="#EAECEC"/>
</svg>
