<svg width="150" height="150" viewBox="0 0 150 150" fill="none" xmlns="http://www.w3.org/2000/svg">
<mask id="mask0_2370_35" style="mask-type:alpha" maskUnits="userSpaceOnUse" x="0" y="0" width="150" height="150">
<circle cx="75" cy="75" r="75" fill="#1E1C24"/>
</mask>
<g mask="url(#mask0_2370_35)">
<circle cx="75" cy="75" r="75" fill="#1E1C24"/>
<path d="M96.4275 106.429H52.8443C42.0449 106.476 31.7015 110.724 24.0651 118.249C16.4288 125.773 12.1176 135.966 12.0699 146.607C11.9766 147.736 11.9766 148.871 12.0699 150H136.93C137.023 148.871 137.023 147.736 136.93 146.607C136.907 136.005 132.64 125.839 125.057 118.317C117.475 110.794 107.187 106.523 96.4275 106.429ZM75.4967 95.3571C82.5575 95.3571 89.4597 93.294 95.3306 89.4285C101.201 85.563 105.777 80.0689 108.479 73.6408C111.181 67.2128 111.888 60.1395 110.511 53.3156C109.133 46.4916 105.733 40.2234 100.74 35.3036C95.7477 30.3838 89.3866 27.0333 82.4614 25.6759C75.5363 24.3186 68.3581 25.0152 61.8348 27.6778C55.3114 30.3404 49.7358 34.8493 45.813 40.6344C41.8903 46.4195 39.7965 53.2209 39.7965 60.1786C39.7965 69.5085 43.5577 78.4563 50.2528 85.0536C56.9479 91.6508 66.0284 95.3571 75.4967 95.3571Z" fill="#787C87"/>
</g>
</svg>
