<svg width="199" height="170" viewBox="0 0 199 170" fill="none" xmlns="http://www.w3.org/2000/svg">
<g id="Group 29">
<circle id="Ellipse 33" cx="80.332" cy="44.2197" r="41.7197" stroke="#49494A" stroke-width="5"/>
<path id="Union" d="M161.927 92.439C161.927 91.092 160.835 90 159.488 90C158.141 90 157.049 91.092 157.049 92.439V128.049L121.439 128.049C120.092 128.049 119 129.141 119 130.488C119 131.835 120.092 132.927 121.439 132.927L157.049 132.927V167.561C157.049 168.908 158.141 170 159.488 170C160.835 170 161.927 168.908 161.927 167.561V132.927L196.561 132.927C197.908 132.927 199 131.835 199 130.488C199 129.141 197.908 128.049 196.561 128.049L161.927 128.049V92.439Z" fill="#49494A"/>
<path id="Subtract" d="M46.4209 97C20.7833 97 0 117.699 0 143.233V167.567C0 168.911 1.09386 170 2.44321 170C3.79255 170 4.88641 168.911 4.88641 167.567V143.233C4.88641 120.387 23.482 101.867 46.4209 101.867H114.831C125.14 101.867 134.573 105.608 141.834 111.801C142.865 112.68 144.416 112.647 145.344 111.66C146.261 110.687 146.225 109.151 145.213 108.277C137.071 101.251 126.449 97 114.831 97H46.4209Z" fill="#49494A"/>
</g>
</svg>
