<svg width="120" height="170" viewBox="0 0 120 170" fill="none" xmlns="http://www.w3.org/2000/svg">
<g id="Group 27">
<path id="Rectangle 166" d="M1.65 10C1.65 5.38842 5.38842 1.65 10 1.65H87H110C114.612 1.65 118.35 5.38842 118.35 10V27.5V160C118.35 164.612 114.612 168.35 110 168.35H10C5.38842 168.35 1.65 164.612 1.65 160V10Z" stroke="#49494A" stroke-width="3.3"/>
<path id="Vector 3 (Stroke)" fill-rule="evenodd" clip-rule="evenodd" d="M18.75 26.25C18.75 25.5596 19.3096 25 20 25H100C100.69 25 101.25 25.5596 101.25 26.25C101.25 26.9404 100.69 27.5 100 27.5H20C19.3096 27.5 18.75 26.9404 18.75 26.25Z" fill="#49494A"/>
<path id="Vector 4 (Stroke)" fill-rule="evenodd" clip-rule="evenodd" d="M18.75 44.25C18.75 43.5596 19.3096 43 20 43H100C100.69 43 101.25 43.5596 101.25 44.25C101.25 44.9404 100.69 45.5 100 45.5H20C19.3096 45.5 18.75 44.9404 18.75 44.25Z" fill="#49494A"/>
<path id="Vector 5 (Stroke)" fill-rule="evenodd" clip-rule="evenodd" d="M18.75 62.25C18.75 61.5596 19.3096 61 20 61H100C100.69 61 101.25 61.5596 101.25 62.25C101.25 62.9404 100.69 63.5 100 63.5H20C19.3096 63.5 18.75 62.9404 18.75 62.25Z" fill="#49494A"/>
<path id="Vector 6 (Stroke)" fill-rule="evenodd" clip-rule="evenodd" d="M18.75 80.25C18.75 79.5596 19.3096 79 20 79H70C70.6904 79 71.25 79.5596 71.25 80.25C71.25 80.9404 70.6904 81.5 70 81.5H20C19.3096 81.5 18.75 80.9404 18.75 80.25Z" fill="#49494A"/>
</g>
</svg>
