<svg width="120" height="170" viewBox="0 0 120 170" fill="none" xmlns="http://www.w3.org/2000/svg">
<g id="Group 28">
<path id="Union" fill-rule="evenodd" clip-rule="evenodd" d="M119.998 163.333V85.0642C119.999 85.0529 119.999 85.0416 120 85.0303C120 85.0203 120 85.0103 120 85.0003L120 84.9893L120 84.9684L119.999 84.9491L119.998 84.9364V6.66667C119.998 2.9847 117.051 0 113.417 0H6.58144C2.94661 0 0 2.98477 0 6.66667V163.333C0 167.015 2.94655 170 6.58143 170H113.417C117.051 170 119.998 167.015 119.998 163.333ZM6.58144 3.33333C4.76403 3.33333 3.29072 4.82572 3.29072 6.66667V83.7684H116.708V6.66667C116.708 4.82579 115.234 3.33333 113.417 3.33333H6.58144ZM3.29072 163.333V86.2322H116.708V163.333C116.708 165.174 115.234 166.667 113.417 166.667H6.58143C4.7641 166.667 3.29072 165.174 3.29072 163.333ZM102.5 109.25C102.5 108.56 101.94 108 101.25 108C100.56 108 100 108.56 100 109.25V149.25C100 149.94 100.56 150.5 101.25 150.5C101.94 150.5 102.5 149.94 102.5 149.25V109.25ZM86.25 108C86.9404 108 87.5 108.56 87.5 109.25V149.25C87.5 149.94 86.9404 150.5 86.25 150.5C85.5596 150.5 85 149.94 85 149.25V109.25C85 108.56 85.5596 108 86.25 108ZM72.5 109.25C72.5 108.56 71.9404 108 71.25 108C70.5596 108 70 108.56 70 109.25V149.25C70 149.94 70.5596 150.5 71.25 150.5C71.9404 150.5 72.5 149.94 72.5 149.25V109.25Z" fill="#4A4D55"/>
</g>
</svg>
