<svg width="42" height="35" viewBox="0 0 42 35" fill="none" xmlns="http://www.w3.org/2000/svg">
<g id="Group">
<path id="Vector" d="M42 8.34951C42 6.452 40.5708 4.9136 38.8097 4.9136C37.0474 4.9136 35.6182 6.452 35.6182 8.34951C35.6182 9.27753 35.9604 10.1186 36.5155 10.7359C34.3455 15.5776 30.1977 17.2679 26.9832 15.7378C24.1198 14.3734 23.0637 10.4735 22.706 7.45188C23.8736 6.79042 24.6697 5.47289 24.6697 3.95242C24.6696 1.76909 23.0277 0 21 0C18.9736 0 17.3304 1.76909 17.3304 3.95242C17.3304 5.47289 18.1264 6.79033 19.2941 7.45188C18.9365 10.4735 17.8803 14.3735 15.0169 15.7378C11.8022 17.268 7.65458 15.5776 5.48461 10.7359C6.03963 10.1186 6.38187 9.27753 6.38187 8.34951C6.38187 6.452 4.95272 4.9136 3.19159 4.9136C1.42915 4.9136 0 6.452 0 8.34951C0 10.0978 1.2125 11.5382 2.77881 11.7564L6.4561 26.2582H35.5439L39.2212 11.7564C40.7887 11.5382 42 10.0978 42 8.34951Z" fill="#D98507"/>
<path id="Vector_2" d="M37.3255 32.4424C37.3255 33.8551 36.263 35 34.9505 35H7.04961C5.73834 34.9999 4.67579 33.8551 4.67579 32.4424V32.2297C4.67579 30.8156 5.73834 29.6707 7.04961 29.6707H34.9505C36.263 29.6707 37.3255 30.8156 37.3255 32.2297V32.4424Z" fill="#D98507"/>
</g>
</svg>
