<svg width="16" height="16" viewBox="0 0 16 16" fill="none" xmlns="http://www.w3.org/2000/svg">
<g id="Frame 72">
<path id="Vector" fill-rule="evenodd" clip-rule="evenodd" d="M10.5778 2.22222C10.5778 0.888889 9.26044 0 8.23111 0C7.51467 0 7.45867 0.544 7.34844 1.61778C7.29956 2.08889 7.24089 2.66133 7.11111 3.33333C6.768 5.11289 5.58222 7.38667 4.448 8.06667V13.3333C4.44444 15.3333 5.11111 16 8 16H11.3538C13.288 16 13.7564 14.7262 13.9307 14.2542L13.9422 14.2222C14.0436 13.9502 14.2604 13.736 14.5093 13.4933C14.7849 13.2213 15.0996 12.9129 15.3333 12.4444C15.6098 11.8907 15.5733 11.3982 15.5404 10.96C15.52 10.6942 15.5013 10.4489 15.5556 10.2222C15.6124 9.98222 15.6853 9.8 15.7556 9.62578C15.8827 9.30933 16 9.016 16 8.44444C16 7.11111 15.3351 6.224 13.9422 6.224H10.2222C10.2222 6.224 10.5778 3.55556 10.5778 2.22222ZM1.33333 7.11111C0.979711 7.11111 0.640573 7.25159 0.390524 7.50164C0.140476 7.75168 0 8.09082 0 8.44444V14.6667C7.45203e-09 15.0203 0.140476 15.3594 0.390524 15.6095C0.640573 15.8595 0.979711 16 1.33333 16C1.68696 16 2.02609 15.8595 2.27614 15.6095C2.52619 15.3594 2.66667 15.0203 2.66667 14.6667V8.44444C2.66667 8.09082 2.52619 7.75168 2.27614 7.50164C2.02609 7.25159 1.68696 7.11111 1.33333 7.11111Z" fill="#787C87"/>
</g>
</svg>
