<svg width="30" height="30" viewBox="0 0 30 30" fill="none" xmlns="http://www.w3.org/2000/svg">
<g id="logo header">
<path id="Vector" d="M18.4524 23.859C17.2437 23.4385 16.0193 23.0678 14.8397 22.5922C11.0343 21.0575 7.77371 18.798 5.2898 15.5525C3.42381 13.1134 2.31708 10.3645 1.83061 7.36616C1.59244 5.89735 1.5331 4.41888 1.57318 2.93686C1.57579 2.83091 1.59166 2.72522 1.60598 2.56921C1.72545 2.62536 1.81186 2.65916 1.89229 2.70438C3.93293 3.87034 5.97565 5.03273 8.00692 6.21393C8.16309 6.30438 8.30339 6.51552 8.33853 6.6921C8.5491 7.74779 8.72661 8.80982 8.92547 9.92826L6.45458 9.29307C6.52902 9.53241 6.579 9.72501 6.64797 9.91073C7.6243 12.5409 9.28701 14.7107 11.3753 16.5904C14.0302 18.9805 17.156 20.5748 20.5587 21.6765C21.6042 22.0152 22.6816 22.2609 23.7446 22.5477C23.8713 22.582 23.9989 22.6135 24.1301 22.6473C22.7276 25.355 19.5831 28.3012 15.5221 28.4656C11.3269 28.6364 7.66985 26.5977 5.38819 22.5457C5.46167 22.506 5.53716 22.4699 5.61438 22.4377C6.60659 22.0774 7.6014 21.7242 8.59075 21.3571C8.79897 21.2791 8.96139 21.2956 9.14958 21.4178C10.1433 22.0634 11.1454 22.6966 12.1429 23.3353C12.2144 23.3811 12.2793 23.437 12.3987 23.5277L10.7131 23.7454C12.5052 25.2633 15.9808 25.7856 18.4524 23.859Z" fill="#FD3D48"/>
<path id="Vector_2" d="M9.63628 4.02893C13.2243 4.79903 16.7749 4.80005 20.334 4.03376C20.334 4.71316 20.3681 5.36333 20.3278 6.0092C20.1903 8.21559 19.7989 10.3727 18.9222 12.4264C18.3452 13.7793 17.5932 15.018 16.4045 15.9512C16.0292 16.2424 15.627 16.4988 15.203 16.7172C15.0658 16.7886 14.8097 16.7426 14.6538 16.6641C13.4505 16.0579 12.5645 15.1181 11.836 14.0266C10.7428 12.3898 10.198 10.561 9.88225 8.65412C9.64279 7.20869 9.58786 5.75182 9.61337 4.29063C9.61467 4.21593 9.62743 4.14123 9.63628 4.02893Z" fill="#EAECEC"/>
<path id="Vector_3" d="M28.43 2.5354C28.43 3.31389 28.4513 4.0286 28.4261 4.74129C28.322 7.70381 27.5838 10.5065 26.1356 13.1182C24.6293 15.8368 22.4684 17.9507 19.7971 19.5852C19.5454 19.7391 19.2817 19.8082 19.0043 19.6812C18.0868 19.2605 17.1734 18.8311 16.207 18.3811C19.49 16.2428 21.9244 13.5183 22.8604 9.65029L21.1881 9.92901C21.2471 9.46964 21.2989 9.03517 21.3601 8.60172C21.4405 8.0303 21.5387 7.46091 21.6084 6.88823C21.6456 6.58334 21.7695 6.38363 22.0532 6.22052C24.0525 5.07133 26.0406 3.90385 28.0328 2.74323C28.1338 2.68403 28.2421 2.63398 28.43 2.5354Z" fill="#FD3D48"/>
</g>
</svg>
