<svg width="2208" height="2260" viewBox="0 0 2208 2260" fill="none" xmlns="http://www.w3.org/2000/svg">
<g opacity="0.3">
<path d="M1106.72 2259.32C937.361 2259.32 780.775 2215.31 641.219 2128.73C501.204 2041.73 384.981 1915.45 295.769 1753.36L237.936 1648.34L345.5 1595.16L347.894 1593.9C356.008 1589.46 364.419 1585.59 373.066 1582.3C397.331 1573.31 421.564 1564.35 445.765 1555.42C482.163 1542.03 519.575 1528.21 556.605 1514.32C459.911 1433.11 372.88 1341.07 297.225 1240.02C224.05 1142.13 163.655 1035.33 117.498 922.201C73.1126 813.424 40.7189 695.846 21.1984 572.776C4.09158 464.822 -2.55572 348.908 0.873307 218.242C1.12234 208.541 2.00354 200.046 2.78896 192.564C3.07631 189.771 3.40193 186.824 3.70844 183.284L18.5548 18.1963L168.072 90.1402C170.37 91.2308 172.458 92.1874 174.374 93.0676C182.192 96.5385 189.827 100.409 197.247 104.663L268.988 146.585C393.353 219.295 521.855 294.396 648.039 369.401C687.425 392.821 717.463 436.006 726.447 482.1C738.247 542.736 748.419 602.147 759.205 665.04C762.768 685.832 766.388 706.88 770.066 728.182L800.717 904.445L673.786 871.018C733.746 974.341 813.628 1071.6 915.043 1165.05C1084.39 1320.99 1291.81 1438.24 1549.12 1523.51C1598.63 1539.92 1649.45 1553.28 1703.24 1567.51C1727.7 1573.94 1753.05 1580.58 1778.08 1587.55C1783.68 1589.08 1789.58 1590.63 1795.8 1592.25L1805.15 1594.68L1942.41 1630.92L1878.35 1757.48C1814.77 1883.11 1716.69 2000.48 1602.17 2087.82C1464.49 2192.89 1307.16 2251.96 1147.05 2258.61C1133.72 2258.96 1120.11 2259.32 1106.72 2259.32Z" fill="#0A0A0A"/>
<path d="M1105.96 1376.42C1078.1 1376.29 1050.67 1369.63 1025.86 1356.96C928.798 1306.91 846.713 1229.05 774.914 1118.97C694.801 996.172 643.653 853.509 613.999 670.053C597.218 566.404 590.475 455.541 592.754 321.183C592.888 312.477 593.655 305.187 594.268 299.313C594.459 297.514 594.67 295.486 594.861 293.285L606.355 163.174L734.015 191.225C855.687 218.152 979.918 231.862 1104.54 232.114C1228.08 231.917 1351.23 218.335 1471.83 191.607L1611.54 160.84V303.828C1611.54 319.135 1611.79 334.921 1612.02 350.132C1612.57 385.454 1613.15 421.981 1610.87 459.56C1598.8 657.903 1562.17 828.138 1498.86 980.004C1441.39 1118.09 1371.56 1216.84 1279.44 1290.8C1246.23 1317.22 1210.63 1340.49 1173.1 1360.31C1152.4 1371.15 1129.33 1376.68 1105.96 1376.42Z" fill="#0A0A0A"/>
<path d="M1420.55 1602.01C1396.13 1602 1372.02 1596.58 1349.95 1586.13C1300.95 1563.17 1253 1540.21 1202.22 1515.99C1182.88 1506.75 1163.3 1497.41 1143.47 1487.95L960.905 1400.97L1129.16 1288.83C1311.91 1167.02 1436.45 1032.01 1511.29 872.395L1426.12 886.86L1445.45 733.425C1446.79 722.767 1448.07 712.377 1449.28 701.949C1452.23 678.051 1455.03 655.454 1458.21 632.168C1460.58 614.947 1463.15 597.822 1465.62 581.252C1469.57 554.924 1473.28 530.05 1476.23 505.214C1483.25 446.415 1513.86 399.498 1564.8 369.554C1671.57 306.737 1779.87 242.045 1884.6 179.458C1924.48 155.629 1964.38 131.82 2004.29 108.03C2012.04 103.381 2019.19 99.6881 2026.74 95.7847C2030.11 94.0244 2033.96 92.0536 2038.48 89.6427L2207.36 0V190.938C2207.36 209.249 2207.52 227.446 2207.67 245.03C2208.02 284.656 2208.36 322.082 2207.02 361.02C2198.59 605.438 2137.25 834.739 2024.71 1042.53C1965.5 1151.81 1891.63 1252.49 1805.15 1341.81C1722.49 1427.2 1625.94 1504.72 1518.17 1572.2C1486.69 1592.01 1453.84 1602.01 1420.55 1602.01Z" fill="#0A0A0A"/>
<path d="M1358.15 1796.78C1269.19 1765.11 1179.08 1737.19 1092.26 1701.37C812.192 1585.81 572.217 1415.65 389.406 1171.23C252.073 987.543 170.619 780.532 134.816 554.732C117.288 444.119 112.92 332.778 115.87 221.169C116.062 213.19 117.23 205.231 118.284 193.482C127.077 197.711 133.437 200.256 139.356 203.662C289.543 291.468 439.884 379.006 589.382 467.96C600.876 474.771 611.201 490.671 613.787 503.97C629.285 583.471 642.35 663.451 656.985 747.679L475.132 699.844C480.611 717.868 484.289 732.372 489.365 746.359C561.222 944.434 683.594 1107.84 837.287 1249.39C1032.68 1429.39 1262.73 1549.45 1513.17 1632.42C1590.12 1657.92 1669.41 1676.42 1747.64 1698.03C1756.97 1700.61 1766.36 1702.98 1776.02 1705.53C1672.8 1909.44 1441.37 2131.32 1142.49 2143.7C833.723 2156.55 564.574 2003.02 396.648 1697.87C402.055 1694.88 407.611 1692.17 413.295 1689.74C486.319 1662.61 559.536 1636.01 632.35 1608.36C647.675 1602.49 659.629 1603.73 673.479 1612.94C746.619 1661.56 820.371 1709.24 893.779 1757.34C899.047 1760.79 903.817 1765 912.61 1771.83L788.552 1788.22C920.445 1902.53 1176.24 1941.87 1358.15 1796.78Z" fill="#1B1B1B"/>
<path d="M709.302 303.407C973.376 361.402 1234.69 361.479 1496.64 303.771C1496.64 354.935 1499.15 403.899 1496.18 452.537C1486.06 618.697 1457.25 781.145 1392.73 935.805C1350.26 1037.69 1294.92 1130.97 1207.43 1201.25C1179.81 1223.18 1150.21 1242.49 1119 1258.94C1108.91 1264.32 1090.06 1260.85 1078.58 1254.94C990.023 1209.29 924.814 1138.51 871.195 1056.31C790.737 933.049 750.642 795.323 727.406 651.722C709.782 542.869 705.739 433.155 707.617 323.115C707.712 317.49 708.651 311.864 709.302 303.407Z" fill="#1B1B1B"/>
<path d="M2092.48 190.938C2092.48 249.564 2094.05 303.388 2092.19 357.059C2084.53 580.161 2030.2 791.228 1923.62 987.906C1812.76 1192.64 1653.72 1351.83 1457.12 1474.92C1438.59 1486.52 1419.19 1491.72 1398.77 1482.16C1331.24 1450.47 1264.02 1418.13 1192.89 1384.25C1434.51 1223.22 1613.68 1018.04 1682.57 726.747L1559.49 747.737C1563.84 713.142 1567.65 680.423 1572.15 647.781C1578.07 604.748 1585.29 561.869 1590.43 518.741C1593.17 495.78 1602.28 480.741 1623.17 468.457C1770.31 381.914 1916.62 293.993 2063.25 206.589C2070.68 202.131 2078.65 198.361 2092.48 190.938Z" fill="#1B1B1B"/>
</g>
</svg>
