<svg width="42" height="43" viewBox="0 0 42 43" fill="none" xmlns="http://www.w3.org/2000/svg">
<g id="logo header" clip-path="url(#clip0_790_38)">
<path id="Vector" d="M21.0504 43.0018C17.8287 43.0018 14.8501 42.1642 12.1955 40.5163C9.53206 38.8604 7.32124 36.4568 5.62423 33.3719L4.52411 31.373L6.57021 30.3609L6.61576 30.3369C6.77011 30.2524 6.9301 30.1787 7.09458 30.1162C7.55616 29.945 8.01712 29.7745 8.47748 29.6045C9.16984 29.3496 9.88151 29.0867 10.5859 28.8223C8.74657 27.2766 7.09105 25.5249 5.65192 23.6015C4.25997 21.7384 3.11112 19.7057 2.23312 17.5525C1.38881 15.4822 0.77261 13.2443 0.401287 10.9019C0.0758777 8.84726 -0.0505685 6.64109 0.0146591 4.15413C0.0193963 3.9695 0.0361587 3.8078 0.0510991 3.66541C0.0565651 3.61224 0.0627592 3.55616 0.0685896 3.48879L0.351 0.34668L3.19514 1.71598C3.23887 1.73674 3.27859 1.75495 3.31503 1.7717C3.46375 1.83776 3.60897 1.91142 3.75012 1.99239L5.1148 2.7903C7.48048 4.17416 9.92488 5.60355 12.3252 7.03112C13.0744 7.47687 13.6458 8.29881 13.8167 9.17611C14.0411 10.3302 14.2346 11.4609 14.4398 12.658C14.5076 13.0537 14.5764 13.4543 14.6464 13.8598L15.2294 17.2146L12.8149 16.5783C13.9555 18.5449 15.4751 20.396 17.4042 22.1746C20.6255 25.1426 24.5712 27.3743 29.4658 28.9971C30.4074 29.3095 31.3742 29.5637 32.3974 29.8347C32.8628 29.957 33.3449 30.0834 33.8211 30.216C33.9275 30.2451 34.0398 30.2746 34.1582 30.3056L34.336 30.3518L36.947 31.0416L35.7284 33.4502C34.519 35.8414 32.6532 38.0752 30.4748 39.7377C27.8559 41.7374 24.8631 42.8616 21.8174 42.9883C21.5638 42.9949 21.3051 43.0018 21.0504 43.0018Z" fill="#0D0D0D"/>
<path id="Vector_2" d="M21.0361 26.1976C20.5062 26.1951 19.9843 26.0683 19.5125 25.8272C17.6661 24.8745 16.1047 23.3927 14.7389 21.2976C13.215 18.9603 12.242 16.245 11.6779 12.7533C11.3587 10.7806 11.2304 8.67055 11.2738 6.11331C11.2764 5.94761 11.2909 5.80886 11.3026 5.69706C11.3062 5.66283 11.3102 5.62422 11.3139 5.58234L11.5325 3.10595L13.9609 3.63983C16.2754 4.15234 18.6385 4.41327 21.0091 4.41808C23.359 4.41433 25.7016 4.15583 27.9958 3.64712L30.6533 3.06152V5.783C30.6533 6.07434 30.6581 6.37479 30.6624 6.66431C30.673 7.33657 30.6839 8.03179 30.6406 8.74703C30.411 12.5221 29.7143 15.7621 28.5099 18.6526C27.4167 21.2808 26.0885 23.1604 24.3361 24.5679C23.7044 25.0707 23.0272 25.5137 22.3133 25.8909C21.9195 26.0972 21.4806 26.2025 21.0361 26.1976Z" fill="#0D0D0D"/>
<path id="Vector_3" d="M27.0198 30.4909C26.5553 30.4908 26.0967 30.3875 25.677 30.1887C24.7448 29.7517 23.8327 29.3147 22.8667 28.8536C22.4989 28.6778 22.1264 28.5 21.7491 28.3201L18.2764 26.6646L21.4769 24.5301C24.9533 22.2118 27.3222 19.6422 28.7459 16.6042L27.1258 16.8795L27.4935 13.9592C27.519 13.7564 27.5434 13.5586 27.5664 13.3601C27.6225 12.9053 27.6757 12.4752 27.7362 12.032C27.7814 11.7042 27.8302 11.3783 27.8772 11.0629C27.9523 10.5618 28.023 10.0884 28.0791 9.61568C28.2125 8.49657 28.7948 7.60361 29.7637 7.03368C31.7949 5.83809 33.8548 4.60682 35.847 3.4156C36.6057 2.96208 37.3646 2.50892 38.1238 2.05613C38.2714 1.96764 38.4073 1.89735 38.5508 1.82306C38.615 1.78956 38.6882 1.75205 38.7742 1.70616L41.9868 0V3.6341C41.9868 3.98262 41.9897 4.32895 41.9926 4.66363C41.9992 5.41784 42.0057 6.13016 41.9802 6.87126C41.8199 11.5232 40.6531 15.8875 38.5122 19.8425C37.3859 21.9222 35.9808 23.8386 34.3358 25.5385C32.7634 27.1638 30.9269 28.6391 28.8768 29.9236C28.278 30.3005 27.6531 30.4909 27.0198 30.4909Z" fill="#0D0D0D"/>
<path id="Vector_4" d="M25.8336 34.198C24.1414 33.5952 22.4272 33.0639 20.7758 32.3822C15.4482 30.1826 10.8834 26.944 7.40594 22.292C4.79356 18.7959 3.24413 14.8559 2.56307 10.5582C2.22964 8.45295 2.14656 6.33381 2.20268 4.20958C2.20632 4.05772 2.22855 3.90622 2.24859 3.68262C2.41585 3.7631 2.53683 3.81154 2.64943 3.87636C5.50633 5.54756 8.36613 7.21366 11.2099 8.90671C11.4286 9.03636 11.625 9.33899 11.6742 9.59209C11.969 11.1052 12.2175 12.6275 12.4959 14.2306L9.03663 13.3202C9.14085 13.6632 9.21081 13.9393 9.30738 14.2055C10.6742 17.9754 13.002 21.0855 15.9256 23.7796C19.6425 27.2054 24.0186 29.4906 28.7824 31.0697C30.2462 31.5551 31.7544 31.9073 33.2426 32.3185C33.4201 32.3676 33.5986 32.4128 33.7823 32.4612C31.8189 36.3422 27.4166 40.5652 21.7312 40.8008C15.8578 41.0455 10.738 38.1234 7.54368 32.3155C7.64655 32.2586 7.75224 32.207 7.86035 32.1608C9.24944 31.6444 10.6422 31.1382 12.0273 30.6119C12.3188 30.5001 12.5462 30.5238 12.8096 30.699C14.2009 31.6243 15.6038 32.5319 17.0002 33.4474C17.1004 33.5129 17.1912 33.5931 17.3584 33.7231L14.9986 34.0352C17.5075 36.2108 22.3733 36.9595 25.8336 34.198Z" fill="#E14344"/>
<path id="Vector_5" d="M13.4912 5.77441C18.5145 6.87823 23.4853 6.87968 28.4681 5.78133C28.4681 6.75514 28.5158 7.68706 28.4593 8.61279C28.2669 11.7753 27.7189 14.8671 26.4916 17.8108C25.6837 19.75 24.6309 21.5254 22.9667 22.863C22.4413 23.2804 21.8782 23.6479 21.2846 23.961C21.0926 24.0633 20.734 23.9974 20.5158 23.8848C18.8311 23.0159 17.5907 21.6688 16.5708 20.1043C15.0403 17.7583 14.2776 15.137 13.8356 12.4039C13.5003 10.3321 13.4234 8.24388 13.4592 6.14951C13.461 6.04244 13.4788 5.93538 13.4912 5.77441Z" fill="white"/>
<path id="Vector_6" d="M39.8017 3.63379C39.8017 4.74962 39.8316 5.77405 39.7962 6.79556C39.6504 11.0418 38.617 15.0591 36.5895 18.8024C34.4807 22.6991 31.4555 25.729 27.7156 28.0718C27.3632 28.2925 26.9941 28.3915 26.6057 28.2094C25.3211 27.6064 24.0425 26.9909 22.6895 26.3459C27.2856 23.281 30.6939 19.376 32.0042 13.8318L29.663 14.2313C29.7457 13.5729 29.8182 12.9501 29.9038 12.3288C30.0164 11.5098 30.1538 10.6937 30.2515 9.87284C30.3036 9.43583 30.477 9.14959 30.8742 8.91579C33.6732 7.26862 36.4565 5.59524 39.2456 3.93168C39.387 3.84683 39.5386 3.77509 39.8017 3.63379Z" fill="#E14344"/>
</g>
<defs>
<clipPath id="clip0_790_38">
<rect width="42" height="43" fill="white"/>
</clipPath>
</defs>
</svg>
