<svg width="46" height="44" viewBox="0 0 46 44" fill="none" xmlns="http://www.w3.org/2000/svg">
<path d="M28.7541 35.765C26.7394 35.0642 24.6988 34.4463 22.7328 33.6536C16.3905 31.0959 10.9562 27.3301 6.81631 21.9208C3.70633 17.8556 1.86178 13.2742 1.05099 8.27694C0.654053 5.82892 0.555144 3.36481 0.621951 0.894773C0.626289 0.71819 0.652752 0.542032 0.676611 0.282028C0.87573 0.375613 1.01975 0.431933 1.1538 0.507309C4.55487 2.45057 7.9594 4.38789 11.3448 6.35656C11.6051 6.50731 11.839 6.8592 11.8975 7.15351C12.2485 8.91298 12.5443 10.683 12.8758 12.5471L8.75761 11.4885C8.88168 11.8874 8.96497 12.2083 9.07993 12.5179C10.7072 16.9015 13.4783 20.5179 16.9588 23.6506C21.3836 27.6341 26.5932 30.2913 32.2644 32.1275C34.007 32.6919 35.8026 33.1014 37.5743 33.5795C37.7855 33.6367 37.9981 33.6892 38.2167 33.7455C35.8794 38.2583 30.6385 43.1687 23.8702 43.4427C16.8781 43.7273 10.7831 40.3294 6.98029 33.5761C7.10276 33.5099 7.22858 33.4499 7.35728 33.3961C9.01096 32.7957 10.669 32.2071 12.3179 31.5952C12.6649 31.4652 12.9356 31.4927 13.2493 31.6964C14.9056 32.7724 16.5757 33.8276 18.2381 34.8922C18.3574 34.9684 18.4654 35.0616 18.6645 35.2128L15.8552 35.5757C18.8419 38.1054 24.6346 38.9761 28.7541 35.765Z" fill="#FD3D48"/>
<path d="M14.0605 2.7148C20.0406 3.9983 25.9582 4 31.8901 2.72284C31.8901 3.85517 31.9469 4.93881 31.8797 6.01524C31.6506 9.69256 30.9982 13.2877 29.5371 16.7106C28.5753 18.9655 27.3221 21.0298 25.3408 22.5852C24.7154 23.0705 24.045 23.498 23.3384 23.8619C23.1098 23.9809 22.6829 23.9043 22.423 23.7734C20.4175 22.7631 18.9409 21.1967 17.7266 19.3775C15.9046 16.6496 14.9967 13.6015 14.4705 10.4235C14.0714 8.01439 13.9798 5.58627 14.0223 3.15096C14.0245 3.02646 14.0458 2.90197 14.0605 2.7148Z" fill="#EAECEC"/>
<path d="M45.3833 0.225708C45.3833 1.52319 45.4188 2.71438 45.3768 3.90218C45.2032 8.83972 43.973 13.5109 41.5592 17.8637C39.0488 22.3947 35.4473 25.9179 30.9951 28.642C30.5756 28.8986 30.1362 29.0138 29.6737 28.802C28.1446 28.1008 26.6223 27.3851 25.0116 26.6352C30.4832 23.0714 34.5406 18.5306 36.1006 12.0839L33.3134 12.5484C33.4119 11.7828 33.4982 11.0587 33.6001 10.3362C33.7342 9.38387 33.8977 8.43489 34.014 7.48042C34.076 6.97227 34.2825 6.63943 34.7554 6.36757C38.0875 4.45226 41.4009 2.50646 44.7213 0.572098C44.8896 0.473432 45.0701 0.39001 45.3833 0.225708Z" fill="#FD3D48"/>
</svg>
