<svg width="238" height="571" viewBox="0 0 238 571" fill="none" xmlns="http://www.w3.org/2000/svg">
<g opacity="0.2">
<path fill-rule="evenodd" clip-rule="evenodd" d="M451.686 111.117C452.29 107.66 452.912 104.134 453.564 100.705L461.002 61.5549L420.837 62.652C386.156 63.6451 351.456 60.9052 317.346 54.4803C282.959 47.8754 249.38 37.6065 217.195 23.8526L183.416 9.47731L173.475 44.499C173.308 45.0914 173.144 45.6357 172.997 46.1181L172.987 46.1515C172.514 47.7219 171.928 49.667 171.442 52.0267C171.151 53.4279 170.865 54.8203 170.585 56.2043C144.713 33.582 118.568 10.9606 93.104 -11.0716L73.5334 -27.9984C71.7065 -29.5523 69.8005 -31.0123 67.8229 -32.3727L67.7235 -32.4429C67.2679 -32.765 66.7739 -33.1142 66.2355 -33.5048L28.7063 -61.0444L16.0203 -16.6219C15.8094 -15.874 15.6143 -15.2268 15.4315 -14.6205L15.2837 -14.1292C14.6777 -12.122 13.9926 -9.84216 13.4192 -7.1991C5.67533 28.3974 1.48032 60.4833 0.586551 90.9382C-0.42728 125.659 2.39798 159.55 8.99132 191.661C15.847 225.057 26.9624 257.466 42.0691 288.105C57.6954 319.742 76.9309 349.506 99.3972 376.813C88.4531 378.674 77.4073 380.495 66.6636 382.253C59.5188 383.429 52.3635 384.611 45.1977 385.801C42.64 386.246 40.1169 386.866 37.6463 387.656L36.9196 387.876L4.46219 396.793L14.9627 428.583C31.1565 477.64 56.6686 518.312 90.7917 549.476C124.81 580.501 165.743 600.763 212.493 609.645C216.066 610.324 219.711 610.92 223.291 611.506L223.661 611.566C268.203 618.14 314.705 610.219 358.174 588.673C394.329 570.763 427.508 543.771 451.594 512.707L475.86 481.417L439.858 464.296L437.404 463.14C435.77 462.369 434.222 461.635 432.758 460.922C426.53 457.86 420.21 454.864 414.086 451.96L413.14 451.512L412 450.969L411.994 450.966C401.048 445.754 390.566 440.762 380.431 435.443C406.573 424.036 430.917 410.496 453.011 395.058C481.528 375.139 507.156 351.445 529.184 324.631C571.06 273.639 599.92 214.073 614.961 147.594C617.33 137.12 619.168 126.965 621.109 116.231L621.175 115.87C622.047 111.047 622.951 106.057 623.904 101.044L633.837 48.7647L582.556 64.4517C581.583 64.7515 580.714 65.0083 579.927 65.2412C579.603 65.337 579.293 65.4286 578.995 65.5176L578.966 65.526C576.69 66.1958 574.534 66.8304 572.16 67.693C559.906 72.1136 547.655 76.5402 535.406 80.9726C507.962 90.9076 479.723 101.126 451.686 111.117Z" fill="#0A0A0A"/>
<path d="M305.957 496.186C283.048 482.85 259.626 470.48 237.525 456.12C166.228 409.789 108.839 350.614 71.0916 274.105C42.7384 216.609 31.0233 155.658 32.8865 91.9563C33.8023 60.7511 38.3886 30.0369 45.0089 -0.366773C45.4769 -2.54134 46.2135 -4.65942 47.1155 -7.82084C49.3226 -6.20191 50.9458 -5.17158 52.4026 -3.92862C89.2916 27.9892 126.237 59.8417 162.876 92.0376C165.694 94.5055 167.717 99.4005 167.739 103.177C167.882 125.757 167.327 148.341 166.986 172.17L119.276 149.536C119.851 154.758 120.112 158.922 120.786 163.018C130.316 221.019 155.595 272.177 190.656 318.995C235.228 378.525 292.484 423.464 357.296 459.314C377.211 470.333 398.135 479.557 418.607 489.575C421.048 490.771 423.515 491.913 426.048 493.116C386.949 543.534 311.525 592.147 228.379 579.862C142.481 567.189 76.1735 511.037 45.6941 418.68C47.3424 418.145 49.0173 417.693 50.7123 417.327C72.281 413.728 93.8748 410.285 115.412 406.534C119.948 405.729 123.183 406.697 126.527 409.943C144.187 427.091 162.065 444.014 179.826 461.035C181.101 462.254 182.198 463.657 184.27 465.988L149.173 463.971C179.634 502.186 248.196 526.372 305.957 496.186Z" fill="#1B1B1B"/>
<path d="M204.539 53.2728C274.416 83.0011 346.543 96.7267 421.851 94.664C419.19 108.673 417.335 122.211 413.986 135.372C402.55 180.336 386.146 223.303 360.291 262.266C343.268 287.935 323.139 310.572 295.333 325.227C286.569 329.782 277.393 333.518 267.924 336.384C264.857 337.327 259.834 335.39 256.974 333.169C234.903 316.025 220.585 293.226 210.061 267.908C194.264 229.94 190.361 190.127 191.417 149.591C192.215 118.863 196.806 88.6108 203.049 58.5804C203.368 57.0452 203.92 55.5542 204.539 53.2728Z" fill="#1B1B1B"/>
<path d="M592.194 95.0183C589.144 111.07 586.778 125.89 583.473 140.487C569.752 201.171 543.776 256.112 504.123 304.372C462.872 354.614 410.691 389.861 350.018 413.252C344.302 415.455 338.674 415.863 333.535 412.172C316.544 399.955 299.671 387.576 281.8 374.568C356.873 343.149 417.003 296.369 451.172 220.225L416.105 219.517C419.105 210.273 421.86 201.515 424.8 192.813C428.673 181.341 432.897 169.98 436.558 158.441C438.508 152.298 441.808 148.658 448.21 146.39C493.328 130.411 538.291 114.012 583.311 97.7706C585.594 96.9398 587.99 96.3257 592.194 95.0183Z" fill="#1B1B1B"/>
</g>
</svg>
