<svg width="40" height="40" viewBox="0 0 40 40" fill="none" xmlns="http://www.w3.org/2000/svg">
<g id="logo header">
<path id="Vector" d="M24.6032 31.812C22.9915 31.2513 21.359 30.7571 19.7862 30.1229C14.7124 28.0767 10.3649 25.0641 7.05303 20.7366C4.56504 17.4845 3.0894 13.8193 2.44077 9.82155C2.12322 7.86313 2.04409 5.89184 2.09754 3.91581C2.10101 3.77454 2.12218 3.63362 2.14126 3.42561C2.30056 3.50048 2.41578 3.54554 2.52302 3.60584C5.24387 5.16044 7.9675 6.71031 10.6759 8.28524C10.8841 8.40584 11.0711 8.68735 11.118 8.9228C11.3988 10.3304 11.6354 11.7464 11.9006 13.2377L8.60606 12.3908C8.70532 12.7099 8.77196 12.9667 8.86392 13.2143C10.1657 16.7212 12.3826 19.6143 15.167 22.1205C18.7069 25.3073 22.8746 27.4331 27.4115 28.902C28.8056 29.3535 30.242 29.6811 31.6594 30.0636C31.8284 30.1093 31.9985 30.1513 32.1734 30.1964C30.3035 33.8066 26.1108 37.735 20.6962 37.9542C15.1024 38.1818 10.2264 35.4636 7.18421 30.0609C7.28218 30.0079 7.38284 29.9599 7.4858 29.9169C8.80874 29.4365 10.1352 28.9657 11.4543 28.4761C11.7319 28.3721 11.9485 28.3942 12.1994 28.5571C13.5244 29.4179 14.8606 30.2621 16.1904 31.1138C16.2859 31.1748 16.3723 31.2493 16.5316 31.3702L14.2841 31.6605C16.6735 33.6843 21.3077 34.3809 24.6032 31.812Z" fill="#FD3D48"/>
<path id="Vector_2" d="M12.8485 5.37184C17.6325 6.39865 22.3666 6.4 27.1121 5.37828C27.1121 6.28414 27.1576 7.15105 27.1038 8.01219C26.9205 10.9541 26.3986 13.8302 25.2297 16.5684C24.4603 18.3724 23.4577 20.0239 21.8727 21.2682C21.3724 21.6564 20.8361 21.9984 20.2708 22.2896C20.0879 22.3848 19.7464 22.3234 19.5385 22.2188C17.9341 21.4105 16.7527 20.1574 15.7813 18.702C14.3237 16.5197 13.5974 14.0812 13.1764 11.5388C12.8571 9.61152 12.7839 7.66902 12.8179 5.72077C12.8196 5.62117 12.8367 5.52158 12.8485 5.37184Z" fill="#EAECEC"/>
<path id="Vector_3" d="M37.9066 3.38057C37.9066 4.41855 37.9351 5.37151 37.9014 6.32175C37.7626 10.2718 36.7784 14.0087 34.8474 17.4909C32.839 21.1157 29.9578 23.9343 26.3961 26.1136C26.0605 26.3189 25.7089 26.411 25.339 26.2416C24.1156 25.6806 22.8978 25.1081 21.6093 24.5082C25.9866 21.6571 29.2325 18.0245 30.4805 12.8671L28.2507 13.2387C28.3295 12.6262 28.3985 12.0469 28.4801 11.469C28.5873 10.7071 28.7182 9.94792 28.8112 9.18434C28.8608 8.77782 29.026 8.51155 29.4043 8.29406C32.07 6.76181 34.7207 5.20517 37.377 3.65768C37.5117 3.57875 37.656 3.51201 37.9066 3.38057Z" fill="#FD3D48"/>
</g>
</svg>
