<svg width="25" height="25" viewBox="0 0 25 25" fill="none" xmlns="http://www.w3.org/2000/svg">
<g id="Frame 63">
<g id="Group 58">
<path id="Vector" d="M14.8994 17.5505C14.1317 16.8426 13.3265 16.1009 12.5025 15.3398C11.6794 16.0984 10.8677 16.846 10.0739 17.5758C9.11054 16.5768 8.16353 15.5947 7.18066 14.5762C7.82124 13.8303 8.49034 13.0507 9.16922 12.2592C8.02009 11.1977 6.88889 10.1532 5.75769 9.10856C4.43089 7.8834 3.10573 6.6557 1.77567 5.43392C1.45049 5.13522 1.25571 4.7783 1.21659 4.32519C1.09923 2.96418 0.975352 1.60402 0.855549 0.243851C0.849844 0.17888 0.854734 0.112222 0.854734 0C1.29075 0.033751 1.70965 0.0624394 2.12856 0.100409C3.08372 0.187318 4.03888 0.280977 4.99486 0.369574C5.47978 0.414294 5.84652 0.658989 6.166 1.03194C8.20754 3.41476 10.2572 5.78999 12.3037 8.16775C12.3607 8.23441 12.4129 8.30444 12.4911 8.40232C12.9222 7.90365 13.3281 7.43704 13.7323 6.9679C15.4454 4.97828 17.161 2.99034 18.8692 0.995655C19.1658 0.649707 19.5122 0.419357 19.9572 0.377168C21.2489 0.253976 22.5415 0.137535 23.8341 0.0210944C23.9286 0.0126566 24.0248 0.0202506 24.1593 0.0202506C24.1128 0.550986 24.068 1.064 24.0232 1.57702C23.9433 2.48745 23.8593 3.39789 23.7852 4.30916C23.7477 4.77493 23.5464 5.13944 23.2131 5.44742C20.8423 7.6328 18.4747 9.82239 16.1056 12.0103C16.0241 12.0854 15.9442 12.1613 15.8334 12.2643C16.5008 13.0414 17.1634 13.8126 17.7991 14.5526C16.8342 15.5508 15.8814 16.5355 14.8994 17.5505Z" fill="#EAECEC"/>
<path id="Vector_2" d="M1.51327 20.8134C2.68033 19.606 3.78219 18.4652 4.91013 17.2974C4.4407 16.8131 3.96311 16.3212 3.48635 15.8275C2.88489 15.2048 2.88407 14.6336 3.4839 14.0101C3.56051 13.9299 3.6363 13.848 3.71617 13.7713C4.16116 13.3485 4.7618 13.33 5.18804 13.7679C7.08451 15.7187 8.97446 17.6754 10.8579 19.6389C11.2654 20.0633 11.2515 20.697 10.8652 21.14C10.7772 21.2404 10.6827 21.334 10.5898 21.4294C10.0331 22.0006 9.45531 22.0057 8.90682 21.4378C8.42109 20.9358 7.94106 20.4278 7.47407 19.9376C6.3445 21.1121 5.23938 22.2622 4.07151 23.4772C4.22472 23.6114 4.42929 23.7641 4.60369 23.9489C4.85797 24.2181 4.8433 24.5201 4.59147 24.7859C4.34208 25.0483 4.03157 25.0779 3.78137 24.8214C2.57193 23.581 1.3682 22.3356 0.170984 21.0834C-0.0816619 20.8193 -0.0458025 20.5156 0.222328 20.2489C0.466824 20.0059 0.762664 19.9874 1.00716 20.2278C1.18727 20.4059 1.3413 20.6126 1.51327 20.8134Z" fill="#EAECEC"/>
<path id="Vector_3" d="M20.1259 17.2822C21.2457 18.4416 22.3525 19.5883 23.4951 20.7712C23.6361 20.6151 23.7909 20.427 23.9621 20.2565C24.2335 19.9865 24.5383 19.995 24.7974 20.2658C25.0542 20.5341 25.0745 20.8303 24.8146 21.1028C23.6247 22.3466 22.4291 23.5844 21.2278 24.8163C20.9662 25.0846 20.65 25.0509 20.3949 24.7682C20.1528 24.499 20.1577 24.2138 20.4145 23.9303C20.5709 23.7574 20.7315 23.5894 20.8896 23.4182C20.8961 23.4106 20.8969 23.3971 20.8912 23.4148C19.7747 22.258 18.6671 21.1104 17.54 19.9426C17.0812 20.4185 16.6052 20.9147 16.1276 21.4074C15.5425 22.0107 14.9777 22.0116 14.3974 21.4125C14.32 21.3323 14.2417 21.2547 14.166 21.1729C13.7422 20.7113 13.7259 20.0717 14.1562 19.6237C16.0339 17.6695 17.9157 15.7212 19.8032 13.7772C20.2294 13.3384 20.826 13.3435 21.2751 13.7628C21.4047 13.8835 21.5277 14.0126 21.6459 14.1459C22.0632 14.6167 22.0656 15.2377 21.6369 15.6993C21.2058 16.1634 20.7592 16.6114 20.3207 17.0679C20.2441 17.1464 20.1732 17.2299 20.1259 17.2822Z" fill="#EAECEC"/>
</g>
</g>
</svg>
