<svg width="25" height="25" viewBox="0 0 25 25" fill="none" xmlns="http://www.w3.org/2000/svg">
<path id="Vector" fill-rule="evenodd" clip-rule="evenodd" d="M0.00271872 7.8125H24.9973C24.9784 4.41402 24.8277 2.57353 23.627 1.37294C22.2541 3.72529e-07 20.0444 0 15.625 0H9.375C4.95558 0 2.74588 3.72529e-07 1.37294 1.37294C0.172344 2.57353 0.021625 4.41402 0.00271872 7.8125ZM25 10.9375H0V15.625C0 20.0444 3.72529e-07 22.2541 1.37294 23.627C2.74588 25 4.95558 25 9.375 25H15.625C20.0444 25 22.2541 25 23.627 23.627C25 22.2541 25 20.0444 25 15.625V10.9375Z" fill="#EAECEC"/>
</svg>
