<svg width="30" height="30" viewBox="0 0 30 30" fill="none" xmlns="http://www.w3.org/2000/svg">
<g id="Union">
<path d="M15 7C15.5523 7 16 7.44772 16 8V14H22C22.5523 14 23 14.4477 23 15C23 15.5523 22.5523 16 22 16H16V22C16 22.5523 15.5523 23 15 23C14.4477 23 14 22.5523 14 22V16H8C7.44772 16 7 15.5523 7 15C7 14.4477 7.44772 14 8 14H14V8C14 7.44772 14.4477 7 15 7Z" fill="#EAECEC"/>
<path fill-rule="evenodd" clip-rule="evenodd" d="M30 15C30 23.2843 23.2843 30 15 30C6.71573 30 0 23.2843 0 15C0 6.71573 6.71573 0 15 0C23.2843 0 30 6.71573 30 15ZM28 15C28 22.1797 22.1797 28 15 28C7.8203 28 2 22.1797 2 15C2 7.8203 7.8203 2 15 2C22.1797 2 28 7.8203 28 15Z" fill="#EAECEC"/>
</g>
</svg>
