<svg width="12" height="12" viewBox="0 0 12 12" fill="none" xmlns="http://www.w3.org/2000/svg">
<path id="Vector" d="M8.10504 7.81714H3.92105C2.88432 7.82165 1.89135 8.22948 1.15826 8.95186C0.42517 9.67424 0.0112981 10.6527 0.00672085 11.6743C-0.00224028 11.7827 -0.00224028 11.8916 0.00672085 12H11.9933C12.0022 11.8916 12.0022 11.7827 11.9933 11.6743C11.991 10.6564 11.5815 9.68052 10.8535 8.95839C10.1256 8.23625 9.13795 7.82617 8.10504 7.81714ZM6.09568 6.75429C6.77352 6.75429 7.43614 6.55622 7.99974 6.18514C8.56335 5.81405 9.00262 5.28661 9.26202 4.66952C9.52142 4.05243 9.58929 3.3734 9.45705 2.7183C9.32481 2.06319 8.9984 1.46145 8.51909 0.989144C8.03979 0.516842 7.42912 0.1952 6.7643 0.0648924C6.09949 -0.0654154 5.41039 0.00146323 4.78414 0.257071C4.1579 0.512679 3.62264 0.945536 3.24606 1.5009C2.86947 2.05627 2.66847 2.70921 2.66847 3.37714C2.66847 4.27282 3.02955 5.13181 3.67228 5.76514C4.315 6.39848 5.18673 6.75429 6.09568 6.75429Z" fill="#EAECEC"/>
</svg>
