<svg width="1344" height="383" viewBox="0 0 1344 383" fill="none" xmlns="http://www.w3.org/2000/svg">
<path d="M20 135H11V112H0V113H10V158H0V159H11V136H20V135Z" fill="#EAECEC"/>
<path d="M1324 135H1333V112H1344V113H1334V158H1344V159H1333V136H1324V135Z" fill="#EAECEC"/>
<path d="M20 23L11 23V0H0V1H10V46H0V47H11V24L20 24V23Z" fill="#EAECEC"/>
<path d="M1324 23L1333 23V0H1344V1H1334V46H1344V47H1333V24L1324 24V23Z" fill="#EAECEC"/>
<path d="M20 247H11V224H0V225H10V270H0V271H11V248H20V247Z" fill="#EAECEC"/>
<path d="M1324 247H1333V224H1344V225H1334V270H1344V271H1333V248H1324V247Z" fill="#EAECEC"/>
<path d="M20 359H11V336H0V337H10V382H0V383H11V360H20V359Z" fill="#EAECEC"/>
<path d="M1324 359H1333V336H1344V337H1334V382H1344V383H1333V360H1324V359Z" fill="#EAECEC"/>
<path d="M233 79H224V23H213V24H223V135H213V136H224V80H233V79Z" fill="#EAECEC"/>
<path d="M1111 79H1120V23H1131V24H1121V135H1131V136H1120V80H1111V79Z" fill="#EAECEC"/>
<path d="M233 303H224V247H213V248H223V359H213V360H224V304H233V303Z" fill="#EAECEC"/>
<path d="M1111 303H1120V247H1131V248H1121V359H1131V360H1120V304H1111V303Z" fill="#EAECEC"/>
<path d="M446 191H437V79H426V80H436V303H426V304H437V192H446V191Z" fill="#EAECEC"/>
<path d="M898 191H907V79H918V80H908V303H918V304H907V192H898V191Z" fill="#EAECEC"/>
<path d="M672 121V158H615V169H616V159H727V169H728V158H673V121H672Z" fill="#EAECEC"/>
</svg>
