<svg width="90" height="90" viewBox="0 0 90 90" fill="none" xmlns="http://www.w3.org/2000/svg">
<g id="Group 232">
<path id="Ellipse 3" d="M90 45C90 69.8528 69.8528 90 45 90C20.1472 90 0 69.8528 0 45C0 20.1472 20.1472 0 45 0C69.8528 0 90 20.1472 90 45ZM4.49222 45C4.49222 67.3718 22.6282 85.5078 45 85.5078C67.3718 85.5078 85.5078 67.3718 85.5078 45C85.5078 22.6282 67.3718 4.49222 45 4.49222C22.6282 4.49222 4.49222 22.6282 4.49222 45Z" fill="url(#paint0_linear_2589_684)"/>
<path id="Ellipse 4" d="M65.0311 82.771C65.6123 83.8669 65.1972 85.232 64.0737 85.7578C57.4245 88.8695 50.1035 90.3121 42.7487 89.9436C34.6449 89.5377 26.8017 86.9483 20.0492 82.4494C13.2967 77.9505 7.88626 71.7097 4.39053 64.3874C1.21789 57.7419 -0.270454 50.43 0.0403165 43.0953C0.0928288 41.856 1.1927 40.9471 2.42791 41.0614C3.66313 41.1757 4.56529 42.2699 4.51964 43.5096C4.27928 50.0368 5.62085 56.5376 8.44446 62.452C11.5912 69.0433 16.4616 74.6612 22.54 78.7109C28.6184 82.7607 35.6786 85.0916 42.9734 85.4571C49.5191 85.7849 56.0351 84.5193 61.9662 81.7835C63.0927 81.264 64.4499 81.6751 65.0311 82.771Z" fill="#FD3D48"/>
</g>
<defs>
<linearGradient id="paint0_linear_2589_684" x1="63.5625" y1="83.8125" x2="3.375" y2="20.25" gradientUnits="userSpaceOnUse">
<stop stop-color="#FD3D48"/>
<stop offset="1" stop-color="#1E1C24"/>
</linearGradient>
</defs>
</svg>
