<svg width="20" height="18" viewBox="0 0 20 18" fill="none" xmlns="http://www.w3.org/2000/svg">
<path id="Union" fill-rule="evenodd" clip-rule="evenodd" d="M11.429 11.025V14.25H8.57186V11.025C7.71672 10.7463 6.95898 10.2504 6.36394 9.5952C6.24349 9.69242 6.09269 9.75022 5.92902 9.75022C2.59961 9.75022 0.000488281 6.93271 0.000488281 3.52522V1.50022C0.000488281 1.086 0.320283 0.750215 0.714769 0.750215H5.00045V0H15.0004V0.750215H19.286C19.6804 0.750215 20.0002 1.086 20.0002 1.50022V3.52522C20.0002 6.93271 17.4011 9.75022 14.0717 9.75022C13.9081 9.75022 13.7573 9.69244 13.6368 9.59525C13.0418 10.2504 12.2841 10.7464 11.429 11.025ZM14.5317 8.22638C16.8347 7.98604 18.5717 5.9582 18.5717 3.52522V2.25022H15.0004V6C15.0004 6.80277 14.8326 7.55518 14.5317 8.22638ZM5.00045 2.25022H1.42905V3.52522C1.42905 5.95824 3.16613 7.98611 5.46917 8.22639C5.16827 7.55519 5.00045 6.80277 5.00045 6V2.25022ZM14.2862 18.0001H5.71484V15.7501C5.71484 14.9251 6.3577 14.2501 7.14341 14.2501H12.8577C13.6434 14.2501 14.2862 14.9251 14.2862 15.7501V18.0001Z" fill="white"/>
</svg>
