<svg xmlns="http://www.w3.org/2000/svg" width="25" height="25" viewBox="0 0 25 25" fill="none">
<path d="M16.8855 16.2857H8.16886C6.009 16.2951 3.94031 17.1447 2.41304 18.6497C0.88577 20.1547 0.0235377 22.1931 0.0140018 24.3214C-0.00466726 24.5472 -0.00466726 24.7742 0.0140018 25H24.986C25.0047 24.7742 25.0047 24.5472 24.986 24.3214C24.9813 22.2009 24.1281 20.1678 22.6115 18.6633C21.0949 17.1589 19.0374 16.3045 16.8855 16.2857ZM12.6993 14.0714C14.1115 14.0714 15.492 13.6588 16.6661 12.8857C17.8403 12.1126 18.7555 11.0138 19.2959 9.72817C19.8363 8.44256 19.9777 7.02791 19.7022 5.66312C19.4267 4.29832 18.7467 3.04468 17.7481 2.06072C16.7496 1.07675 15.4773 0.406667 14.0923 0.135192C12.7073 -0.136282 11.2716 0.00304841 9.96697 0.535565C8.6623 1.06808 7.54718 1.96987 6.76262 3.12688C5.97806 4.2839 5.55931 5.64418 5.55931 7.03572C5.55931 8.9017 6.31156 10.6913 7.65057 12.0107C8.98959 13.3302 10.8057 14.0714 12.6993 14.0714Z" fill="#EAECEC"/>
</svg>