<svg width="20" height="14" viewBox="0 0 20 14" fill="none" xmlns="http://www.w3.org/2000/svg">
<path id="Vector" fill-rule="evenodd" clip-rule="evenodd" d="M20 7C20 6.5814 19.7787 6.30653 19.3361 5.75668C17.7169 3.74516 14.1455 0 9.99998 0C5.85448 0 2.28309 3.74516 0.663879 5.75668C0.221293 6.30653 0 6.5814 0 7C0 7.4186 0.221293 7.69347 0.663879 8.24332C2.28309 10.2549 5.85448 14 9.99998 14C14.1455 14 17.7169 10.2549 19.3361 8.24332C19.7787 7.69347 20 7.4186 20 7ZM9.99998 10.5C11.8892 10.5 13.4206 8.93305 13.4206 7C13.4206 5.06695 11.8892 3.5 9.99998 3.5C8.11087 3.5 6.57936 5.06695 6.57936 7C6.57936 8.93305 8.11087 10.5 9.99998 10.5Z" fill="#787C87"/>
</svg>
