<svg width="12" height="20" viewBox="0 0 12 20" fill="none" xmlns="http://www.w3.org/2000/svg">
<g id="Frame 69">
<path id="?" d="M0 4.56757C0.801724 1.86487 3.28448 0 6.15517 0C9.72414 0 12 2.35135 12 5.67567C12 8.08108 10.3966 9.37838 9.05172 10.7297C7.83621 11.973 7.26724 12.8649 7.24138 14.1351H4.11207C4.16379 12.0541 5.30172 10.5676 6.9569 8.91892C8.01724 7.86487 8.92241 7 8.92241 5.72973C8.92241 4.21622 7.96552 3.18919 6.18104 3.18919C4.55172 3.18919 3.25862 4.24324 2.84483 5.75676L0 4.56757ZM5.71552 20C4.65517 20 3.80172 19.1081 3.80172 18C3.80172 16.8919 4.65517 16 5.71552 16C6.77586 16 7.62931 16.8919 7.62931 18C7.62931 19.1081 6.77586 20 5.71552 20Z" fill="#4A4D55"/>
</g>
</svg>
