<svg width="20" height="20" viewBox="0 0 20 20" fill="none" xmlns="http://www.w3.org/2000/svg">
<path id="Vector" d="M16.6667 0H3.33333C1.49233 0 0 1.49233 0 3.33333V16.6667C0 18.5077 1.49233 20 3.33333 20H16.6667C18.5077 20 20 18.5077 20 16.6667V3.33333C20 1.49233 18.5077 0 16.6667 0ZM7.07667 14.1217H5.451L2.66667 5.90667H4.50467L6.29233 12.1433L8.09633 5.90667H9.884L7.07667 14.1217ZM16.461 13.59C15.8797 14.0857 15.058 14.3333 13.996 14.3333C12.912 14.3333 12.0597 14.0893 11.4387 13.601C10.8177 13.112 10.507 12.4407 10.507 11.586H12.1497C12.2023 11.961 12.3073 12.2417 12.4627 12.4273C12.7477 12.766 13.2367 12.9343 13.9287 12.9343C14.3427 12.9343 14.6793 12.8897 14.9383 12.8007C15.4287 12.63 15.674 12.3123 15.674 11.8477C15.674 11.5767 15.5537 11.3667 15.3133 11.218C15.073 11.0727 14.6917 10.9447 14.17 10.8333L13.2787 10.6387C12.4023 10.445 11.8007 10.235 11.4727 10.0083C10.918 9.62967 10.6407 9.03667 10.6407 8.23033C10.6407 7.49467 10.9117 6.88367 11.4543 6.39667C11.9973 5.91 12.7947 5.66667 13.847 5.66667C14.7253 5.66667 15.4747 5.896 16.0943 6.355C16.7147 6.81367 17.0397 7.48 17.0703 8.353H15.4167C15.386 7.859 15.1647 7.50767 14.752 7.29967C14.4773 7.16233 14.1353 7.093 13.7273 7.093C13.273 7.093 12.9103 7.18267 12.6387 7.361C12.3677 7.53933 12.2323 7.78867 12.2323 8.10767C12.2323 8.40133 12.3657 8.62067 12.6333 8.766C12.8053 8.86233 13.1697 8.97567 13.727 9.10567L15.1723 9.446C15.805 9.59467 16.2803 9.79333 16.596 10.0423C17.088 10.4283 17.3333 10.9873 17.3333 11.7197C17.3333 12.4703 17.043 13.0933 16.461 13.59Z" fill="white"/>
</svg>
