<svg width="355" height="18" viewBox="0 0 355 18" fill="none" xmlns="http://www.w3.org/2000/svg">
<path d="M0.5 -9.53674e-07H5.58C6.86 -9.53674e-07 7.93333 0.433332 8.8 1.3C9.66667 2.16667 10.1 3.23333 10.1 4.5C10.1 5.76667 9.66667 6.83333 8.8 7.7C7.93333 8.56667 6.86 9 5.58 9H2.36V14H0.5V-9.53674e-07ZM2.36 7.26H5.58C6.36667 7.26 7.00667 7 7.5 6.48C8.00667 5.93333 8.26 5.27333 8.26 4.5C8.26 3.7 8.00667 3.04 7.5 2.52C6.99333 2 6.35333 1.74 5.58 1.74H2.36V7.26ZM20.9552 9.8H12.5752C12.7485 10.68 13.1552 11.3733 13.7952 11.88C14.4352 12.3733 15.2352 12.62 16.1952 12.62C17.5152 12.62 18.4752 12.1333 19.0752 11.16L20.5552 12C19.5685 13.5067 18.1018 14.26 16.1552 14.26C14.5818 14.26 13.2885 13.7667 12.2752 12.78C11.2885 11.7667 10.7952 10.5067 10.7952 9C10.7952 7.48 11.2818 6.22667 12.2552 5.24C13.2285 4.24 14.4885 3.74 16.0352 3.74C17.5018 3.74 18.6952 4.26 19.6152 5.3C20.5485 6.31333 21.0152 7.55333 21.0152 9.02C21.0152 9.27333 20.9952 9.53333 20.9552 9.8ZM16.0352 5.38C15.1152 5.38 14.3418 5.64 13.7152 6.16C13.1018 6.68 12.7218 7.38667 12.5752 8.28H19.2552C19.1085 7.36 18.7418 6.64667 18.1552 6.14C17.5685 5.63333 16.8618 5.38 16.0352 5.38ZM30.0553 2.5H24.6553V0.98H30.0553V2.5ZM24.7353 11.02L30.2753 4H31.6753V14H29.9553V6.98L24.4153 14H23.0153V4H24.7353V11.02ZM33.2039 4H41.7639V5.68H38.3639V14H36.6239V5.68H33.2039V4ZM45.0088 11.02L50.5488 4H51.9488V14H50.2288V6.98L44.6888 14H43.2887V4H45.0088V11.02ZM61.5173 8.16V4H63.2573V14H61.5173V9.82H56.3373V14H54.5973V4H56.3373V8.16H61.5173ZM65.9059 4H72.4659V5.68H67.6459V14H65.9059V4ZM84.3919 8.88C85.4985 9.34667 86.0519 10.14 86.0519 11.26C86.0519 12.1267 85.7119 12.8467 85.0319 13.42C84.3519 13.98 83.4119 14.26 82.2119 14.26C80.2119 14.26 78.8719 13.46 78.1919 11.86L79.6519 11C80.0252 12.0933 80.8852 12.64 82.2319 12.64C82.8852 12.64 83.3985 12.5 83.7719 12.22C84.1452 11.94 84.3319 11.5667 84.3319 11.1C84.3319 10.7 84.1785 10.3733 83.8719 10.12C83.5785 9.86667 83.1785 9.74 82.6719 9.74H81.2119V8.16H82.2919C82.7985 8.16 83.1919 8.04 83.4719 7.8C83.7519 7.54667 83.8919 7.20667 83.8919 6.78C83.8919 6.34 83.7252 5.99333 83.3919 5.74C83.0585 5.47333 82.6119 5.34 82.0519 5.34C80.9319 5.34 80.1719 5.81333 79.7719 6.76L78.3519 5.94C79.0585 4.47333 80.2919 3.74 82.0519 3.74C83.1185 3.74 83.9719 4.02 84.6119 4.58C85.2652 5.12667 85.5919 5.81333 85.5919 6.64C85.5919 7.65333 85.1919 8.4 84.3919 8.88ZM96.2172 5.72V4H97.9572V14H96.2172V12.28C95.3639 13.6 94.1039 14.26 92.4372 14.26C91.0239 14.26 89.8305 13.7533 88.8572 12.74C87.8705 11.7133 87.3772 10.4667 87.3772 9C87.3772 7.54667 87.8705 6.30667 88.8572 5.28C89.8439 4.25333 91.0372 3.74 92.4372 3.74C94.1039 3.74 95.3639 4.4 96.2172 5.72ZM92.6572 12.58C93.6705 12.58 94.5172 12.24 95.1972 11.56C95.8772 10.8533 96.2172 10 96.2172 9C96.2172 7.98667 95.8772 7.14 95.1972 6.46C94.5172 5.76667 93.6705 5.42 92.6572 5.42C91.6572 5.42 90.8172 5.76667 90.1372 6.46C89.4572 7.14 89.1172 7.98667 89.1172 9C89.1172 10 89.4572 10.8533 90.1372 11.56C90.8172 12.24 91.6572 12.58 92.6572 12.58ZM106.113 3.74C107.513 3.74 108.707 4.25333 109.693 5.28C110.68 6.30667 111.173 7.54667 111.173 9C111.173 10.4667 110.68 11.7133 109.693 12.74C108.72 13.7533 107.527 14.26 106.113 14.26C104.46 14.26 103.2 13.6 102.333 12.28V18H100.593V4H102.333V5.72C103.2 4.4 104.46 3.74 106.113 3.74ZM105.893 12.58C106.893 12.58 107.733 12.24 108.413 11.56C109.093 10.8533 109.433 10 109.433 9C109.433 7.98667 109.093 7.14 108.413 6.46C107.733 5.76667 106.893 5.42 105.893 5.42C104.88 5.42 104.033 5.76667 103.353 6.46C102.673 7.14 102.333 7.98667 102.333 9C102.333 10 102.673 10.8533 103.353 11.56C104.033 12.24 104.88 12.58 105.893 12.58ZM122.85 9.8H114.47C114.643 10.68 115.05 11.3733 115.69 11.88C116.33 12.3733 117.13 12.62 118.09 12.62C119.41 12.62 120.37 12.1333 120.97 11.16L122.45 12C121.463 13.5067 119.996 14.26 118.05 14.26C116.476 14.26 115.183 13.7667 114.17 12.78C113.183 11.7667 112.69 10.5067 112.69 9C112.69 7.48 113.176 6.22667 114.15 5.24C115.123 4.24 116.383 3.74 117.93 3.74C119.396 3.74 120.59 4.26 121.51 5.3C122.443 6.31333 122.91 7.55333 122.91 9.02C122.91 9.27333 122.89 9.53333 122.85 9.8ZM117.93 5.38C117.01 5.38 116.236 5.64 115.61 6.16C114.996 6.68 114.616 7.38667 114.47 8.28H121.15C121.003 7.36 120.636 6.64667 120.05 6.14C119.463 5.63333 118.756 5.38 117.93 5.38ZM124.91 4H131.47V5.68H126.65V14H124.91V4ZM134.716 11.02L140.256 4H141.656V14H139.936V6.98L134.396 14H132.996V4H134.716V11.02ZM149.004 14.26C147.498 14.26 146.244 13.76 145.244 12.76C144.244 11.7467 143.744 10.4933 143.744 9C143.744 7.50667 144.244 6.26 145.244 5.26C146.244 4.24667 147.498 3.74 149.004 3.74C149.991 3.74 150.878 3.98 151.664 4.46C152.451 4.92667 153.038 5.56 153.424 6.36L151.964 7.2C151.711 6.66667 151.318 6.24 150.784 5.92C150.264 5.6 149.671 5.44 149.004 5.44C148.004 5.44 147.164 5.78 146.484 6.46C145.818 7.15333 145.484 8 145.484 9C145.484 9.98667 145.818 10.8267 146.484 11.52C147.164 12.2 148.004 12.54 149.004 12.54C149.671 12.54 150.271 12.3867 150.804 12.08C151.338 11.76 151.744 11.3333 152.024 10.8L153.504 11.66C153.064 12.46 152.444 13.0933 151.644 13.56C150.844 14.0267 149.964 14.26 149.004 14.26ZM153.946 4H162.506V5.68H159.106V14H157.366V5.68H153.946V4ZM169.551 3.74C170.951 3.74 172.144 4.25333 173.131 5.28C174.118 6.30667 174.611 7.54667 174.611 9C174.611 10.4667 174.118 11.7133 173.131 12.74C172.158 13.7533 170.964 14.26 169.551 14.26C167.898 14.26 166.638 13.6 165.771 12.28V18H164.031V4H165.771V5.72C166.638 4.4 167.898 3.74 169.551 3.74ZM169.331 12.58C170.331 12.58 171.171 12.24 171.851 11.56C172.531 10.8533 172.871 10 172.871 9C172.871 7.98667 172.531 7.14 171.851 6.46C171.171 5.76667 170.331 5.42 169.331 5.42C168.318 5.42 167.471 5.76667 166.791 6.46C166.111 7.14 165.771 7.98667 165.771 9C165.771 10 166.111 10.8533 166.791 11.56C167.471 12.24 168.318 12.58 169.331 12.58ZM178.407 11.02L183.947 4H185.347V14H183.627V6.98L178.087 14H176.687V4H178.407V11.02ZM193.516 3.74C194.916 3.74 196.109 4.25333 197.096 5.28C198.082 6.30667 198.576 7.54667 198.576 9C198.576 10.4667 198.082 11.7133 197.096 12.74C196.122 13.7533 194.929 14.26 193.516 14.26C191.862 14.26 190.602 13.6 189.736 12.28V18H187.996V4H189.736V5.72C190.602 4.4 191.862 3.74 193.516 3.74ZM193.296 12.58C194.296 12.58 195.136 12.24 195.816 11.56C196.496 10.8533 196.836 10 196.836 9C196.836 7.98667 196.496 7.14 195.816 6.46C195.136 5.76667 194.296 5.42 193.296 5.42C192.282 5.42 191.436 5.76667 190.756 6.46C190.076 7.14 189.736 7.98667 189.736 9C189.736 10 190.076 10.8533 190.756 11.56C191.436 12.24 192.282 12.58 193.296 12.58ZM209.092 12.74C208.079 13.7533 206.832 14.26 205.352 14.26C203.872 14.26 202.625 13.7533 201.612 12.74C200.599 11.7267 200.092 10.48 200.092 9C200.092 7.52 200.599 6.27333 201.612 5.26C202.625 4.24667 203.872 3.74 205.352 3.74C206.832 3.74 208.079 4.24667 209.092 5.26C210.119 6.28667 210.632 7.53333 210.632 9C210.632 10.4667 210.119 11.7133 209.092 12.74ZM205.352 12.56C206.352 12.56 207.192 12.22 207.872 11.54C208.552 10.86 208.892 10.0133 208.892 9C208.892 7.98667 208.552 7.14 207.872 6.46C207.192 5.78 206.352 5.44 205.352 5.44C204.365 5.44 203.532 5.78 202.852 6.46C202.172 7.14 201.832 7.98667 201.832 9C201.832 10.0133 202.172 10.86 202.852 11.54C203.532 12.22 204.365 12.56 205.352 12.56ZM219.343 8.86C220.37 9.28667 220.883 10.06 220.883 11.18C220.883 12.0333 220.603 12.72 220.043 13.24C219.483 13.7467 218.697 14 217.683 14H212.683V4H217.283C218.27 4 219.037 4.24667 219.583 4.74C220.143 5.23333 220.423 5.89333 220.423 6.72C220.423 7.68 220.063 8.39333 219.343 8.86ZM217.203 5.56H214.383V8.18H217.203C218.217 8.18 218.723 7.73333 218.723 6.84C218.723 5.98667 218.217 5.56 217.203 5.56ZM214.383 12.42H217.583C218.09 12.42 218.477 12.3 218.743 12.06C219.023 11.82 219.163 11.48 219.163 11.04C219.163 10.6267 219.023 10.3067 218.743 10.08C218.477 9.84 218.09 9.72 217.583 9.72H214.383V12.42ZM231.041 5.72V4H232.781V14H231.041V12.28C230.188 13.6 228.928 14.26 227.261 14.26C225.848 14.26 224.655 13.7533 223.681 12.74C222.695 11.7133 222.201 10.4667 222.201 9C222.201 7.54667 222.695 6.30667 223.681 5.28C224.668 4.25333 225.861 3.74 227.261 3.74C228.928 3.74 230.188 4.4 231.041 5.72ZM227.481 12.58C228.495 12.58 229.341 12.24 230.021 11.56C230.701 10.8533 231.041 10 231.041 9C231.041 7.98667 230.701 7.14 230.021 6.46C229.341 5.76667 228.495 5.42 227.481 5.42C226.481 5.42 225.641 5.76667 224.961 6.46C224.281 7.14 223.941 7.98667 223.941 9C223.941 10 224.281 10.8533 224.961 11.56C225.641 12.24 226.481 12.58 227.481 12.58ZM242.338 8.16V4H244.078V14H242.338V9.82H237.158V14H235.418V4H237.158V8.16H242.338ZM253.646 8.16V4H255.386V14H253.646V9.82H248.466V14H246.726V4H248.466V8.16H253.646ZM259.775 7.6H262.255C263.255 7.6 264.082 7.9 264.735 8.5C265.402 9.08667 265.735 9.85333 265.735 10.8C265.735 11.7467 265.402 12.52 264.735 13.12C264.068 13.7067 263.242 14 262.255 14H258.035V4H259.775V7.6ZM267.035 14V4H268.775V14H267.035ZM259.775 12.38H262.255C262.762 12.38 263.182 12.2333 263.515 11.94C263.848 11.6467 264.015 11.2667 264.015 10.8C264.015 10.3333 263.842 9.95333 263.495 9.66C263.162 9.35333 262.748 9.2 262.255 9.2H259.775V12.38ZM276.293 8.84L280.113 14H278.073L275.273 10.22L272.453 14H270.413L274.253 8.86L270.633 4H272.693L275.273 7.48L277.853 4H279.893L276.293 8.84ZM290.246 8.84L295.186 14H293.026L288.466 9.26V14H286.726V4H288.466V8.42L292.786 4H295.026L290.246 8.84ZM304.326 12.74C303.313 13.7533 302.066 14.26 300.586 14.26C299.106 14.26 297.86 13.7533 296.846 12.74C295.833 11.7267 295.326 10.48 295.326 9C295.326 7.52 295.833 6.27333 296.846 5.26C297.86 4.24667 299.106 3.74 300.586 3.74C302.066 3.74 303.313 4.24667 304.326 5.26C305.353 6.28667 305.866 7.53333 305.866 9C305.866 10.4667 305.353 11.7133 304.326 12.74ZM300.586 12.56C301.586 12.56 302.426 12.22 303.106 11.54C303.786 10.86 304.126 10.0133 304.126 9C304.126 7.98667 303.786 7.14 303.106 6.46C302.426 5.78 301.586 5.44 300.586 5.44C299.6 5.44 298.766 5.78 298.086 6.46C297.406 7.14 297.066 7.98667 297.066 9C297.066 10.0133 297.406 10.86 298.086 11.54C298.766 12.22 299.6 12.56 300.586 12.56ZM316.058 4H317.918V14H316.218V6.74L313.038 11.86H312.818L309.638 6.74V14H307.918V4H309.778L312.918 9.06L316.058 4ZM328.854 5.72V4H330.594V14H328.854V12.28C328.001 13.6 326.741 14.26 325.074 14.26C323.661 14.26 322.467 13.7533 321.494 12.74C320.507 11.7133 320.014 10.4667 320.014 9C320.014 7.54667 320.507 6.30667 321.494 5.28C322.481 4.25333 323.674 3.74 325.074 3.74C326.741 3.74 328.001 4.4 328.854 5.72ZM325.294 12.58C326.307 12.58 327.154 12.24 327.834 11.56C328.514 10.8533 328.854 10 328.854 9C328.854 7.98667 328.514 7.14 327.834 6.46C327.154 5.76667 326.307 5.42 325.294 5.42C324.294 5.42 323.454 5.76667 322.774 6.46C322.094 7.14 321.754 7.98667 321.754 9C321.754 10 322.094 10.8533 322.774 11.56C323.454 12.24 324.294 12.58 325.294 12.58ZM340.15 8.16V4H341.89V14H340.15V9.82H334.97V14H333.23V4H334.97V8.16H340.15ZM353.139 4V12.34H354.519V16.68H352.799V14H345.299V16.68H343.579V12.34H344.799C345.439 11.46 345.759 10.2267 345.759 8.64V4H353.139ZM346.779 12.34H351.419V5.62H347.479V8.64C347.479 10.1067 347.245 11.34 346.779 12.34Z" fill="#EAECEC"/>
</svg>
